{
	"asset":{
		"generator":"Khronos glTF Blender I/O v4.3.47",
		"version":"2.0"
	},
	"scene":0,
	"scenes":[
		{
			"name":"Scene",
			"nodes":[
				0
			]
		}
	],
	"nodes":[
		{
			"mesh":0,
			"name":"mug_inomata_ceramic_dense_patterned_yellow_mesh_collision"
		}
	],
	"materials":[
		{
			"name":"mug_inomata_ceramic_dense_patterned_yellow_mesh_collision_material",
			"normalTexture":{
				"index":0
			},
			"occlusionTexture":{
				"index":1
			},
			"pbrMetallicRoughness":{
				"baseColorTexture":{
					"index":2
				},
				"metallicRoughnessTexture":{
					"index":1
				}
			}
		}
	],
	"meshes":[
		{
			"name":"mug_inomata_ceramic_dense_patterned_yellow_mesh_collision",
			"primitives":[
				{
					"attributes":{
						"POSITION":0,
						"NORMAL":1,
						"TEXCOORD_0":2
					},
					"indices":3,
					"material":0
				}
			]
		}
	],
	"textures":[
		{
			"sampler":0,
			"source":0,
			"extensions":{
				"KHR_texture_basisu":{
					"source":3
				}
			}
		},
		{
			"sampler":0,
			"source":1,
			"extensions":{
				"KHR_texture_basisu":{
					"source":4
				}
			}
		},
		{
			"sampler":0,
			"source":2,
			"extensions":{
				"KHR_texture_basisu":{
					"source":5
				}
			}
		}
	],
	"images":[
		{
			"mimeType":"image/png",
			"name":"mug_inomata_ceramic_dense_patterned_yellow_mesh_collision_normal",
			"uri":"mug_inomata_ceramic_dense_patterned_yellow_mesh_collision_normal.png"
		},
		{
			"mimeType":"image/png",
			"name":"mug_inomata_ceramic_dense_patterned_yellow_mesh_collision_occlusion_roughness_metallic",
			"uri":"mug_inomata_ceramic_dense_patterned_yellow_mesh_collision_occlusion_roughness_metallic.png"
		},
		{
			"mimeType":"image/png",
			"name":"mug_inomata_ceramic_dense_patterned_yellow_mesh_collision_color",
			"uri":"mug_inomata_ceramic_dense_patterned_yellow_mesh_collision_color.png"
		},
		{
			"mimeType":"image/ktx2",
			"uri":"mug_inomata_ceramic_dense_patterned_yellow_mesh_collision_normal.ktx2"
		},
		{
			"mimeType":"image/ktx2",
			"uri":"mug_inomata_ceramic_dense_patterned_yellow_mesh_collision_occlusion_roughness_metallic.ktx2"
		},
		{
			"mimeType":"image/ktx2",
			"uri":"mug_inomata_ceramic_dense_patterned_yellow_mesh_collision_color.ktx2"
		}
	],
	"accessors":[
		{
			"bufferView":0,
			"componentType":5126,
			"count":5349,
			"max":[
				0.06447086483240128,
				0.04864700138568878,
				0.03879493474960327
			],
			"min":[
				-0.03877079486846924,
				-0.04864700511097908,
				-0.03879501670598984
			],
			"type":"VEC3"
		},
		{
			"bufferView":1,
			"componentType":5126,
			"count":5349,
			"type":"VEC3"
		},
		{
			"bufferView":2,
			"componentType":5126,
			"count":5349,
			"type":"VEC2"
		},
		{
			"bufferView":3,
			"componentType":5123,
			"count":30528,
			"type":"SCALAR"
		}
	],
	"bufferViews":[
		{
			"buffer":0,
			"byteLength":64188,
			"byteOffset":0,
			"target":34962
		},
		{
			"buffer":0,
			"byteLength":64188,
			"byteOffset":64188,
			"target":34962
		},
		{
			"buffer":0,
			"byteLength":42792,
			"byteOffset":128376,
			"target":34962
		},
		{
			"buffer":0,
			"byteLength":61056,
			"byteOffset":171168,
			"target":34963
		}
	],
	"samplers":[
		{
			"magFilter":9729,
			"minFilter":9987
		}
	],
	"buffers":[
		{
			"byteLength":232224,
			"uri":"mug_inomata_white_issue11152_mesh_collision.bin"
		}
	],
	"extensionsUsed":[
		"KHR_texture_basisu"
	]
}
