#usda 1.0
(
    defaultPrim = "Bear"
    doc = "Small repository-owned deformable Gaussian bear. The Gaussian type and newton:deformableSkin attributes are experimental; the embedding follows the AOUSD tetrahedral barycentric model."
    metersPerUnit = 1
    upAxis = "Z"
)

def Xform "Bear" (
    prepend apiSchemas = ["PhysicsDeformableBodyAPI"]
)
{
    def TetMesh "Sim" (
        prepend apiSchemas = ["PhysicsVolumeDeformableSimAPI", "PhysicsCollisionAPI", "MaterialBindingAPI"]
    )
    {
        custom rel material:binding:physics = </Bear/Material>
        point3f[] points = [(-0.6, -0.3, 0.6), (-0.3, -0.3, 0.6), (0, -0.3, 0.6), (0.29999995, -0.3, 0.6), (0.6, -0.3, 0.6), (-0.6, 0, 0.6), (-0.3, 0, 0.6), (0, 0, 0.6), (0.29999995, 0, 0.6), (0.6, 0, 0.6), (-0.6, 0.3, 0.6), (-0.3, 0.3, 0.6), (0, 0.3, 0.6), (0.29999995, 0.3, 0.6), (0.6, 0.3, 0.6), (-0.6, -0.3, 0.9333334), (-0.3, -0.3, 0.9333334), (0, -0.3, 0.9333334), (0.29999995, -0.3, 0.9333334), (0.6, -0.3, 0.9333334), (-0.6, 0, 0.9333334), (-0.3, 0, 0.9333334), (0, 0, 0.9333334), (0.29999995, 0, 0.9333334), (0.6, 0, 0.9333334), (-0.6, 0.3, 0.9333334), (-0.3, 0.3, 0.9333334), (0, 0.3, 0.9333334), (0.29999995, 0.3, 0.9333334), (0.6, 0.3, 0.9333334), (-0.6, -0.3, 1.2666667), (-0.3, -0.3, 1.2666667), (0, -0.3, 1.2666667), (0.29999995, -0.3, 1.2666667), (0.6, -0.3, 1.2666667), (-0.6, 0, 1.2666667), (-0.3, 0, 1.2666667), (0, 0, 1.2666667), (0.29999995, 0, 1.2666667), (0.6, 0, 1.2666667), (-0.6, 0.3, 1.2666667), (-0.3, 0.3, 1.2666667), (0, 0.3, 1.2666667), (0.29999995, 0.3, 1.2666667), (0.6, 0.3, 1.2666667), (-0.6, -0.3, 1.6), (-0.3, -0.3, 1.6), (0, -0.3, 1.6), (0.29999995, -0.3, 1.6), (0.6, -0.3, 1.6), (-0.6, 0, 1.6), (-0.3, 0, 1.6), (0, 0, 1.6), (0.29999995, 0, 1.6), (0.6, 0, 1.6), (-0.6, 0.3, 1.6), (-0.3, 0.3, 1.6), (0, 0.3, 1.6), (0.29999995, 0.3, 1.6), (0.6, 0.3, 1.6), (-0.6, -0.3, 1.9333334), (-0.3, -0.3, 1.9333334), (0, -0.3, 1.9333334), (0.29999995, -0.3, 1.9333334), (0.6, -0.3, 1.9333334), (-0.6, 0, 1.9333334), (-0.3, 0, 1.9333334), (0, 0, 1.9333334), (0.29999995, 0, 1.9333334), (0.6, 0, 1.9333334), (-0.6, 0.3, 1.9333334), (-0.3, 0.3, 1.9333334), (0, 0.3, 1.9333334), (0.29999995, 0.3, 1.9333334), (0.6, 0.3, 1.9333334), (-0.6, -0.3, 2.2666667), (-0.3, -0.3, 2.2666667), (0, -0.3, 2.2666667), (0.29999995, -0.3, 2.2666667), (0.6, -0.3, 2.2666667), (-0.6, 0, 2.2666667), (-0.3, 0, 2.2666667), (0, 0, 2.2666667), (0.29999995, 0, 2.2666667), (0.6, 0, 2.2666667), (-0.6, 0.3, 2.2666667), (-0.3, 0.3, 2.2666667), (0, 0.3, 2.2666667), (0.29999995, 0.3, 2.2666667), (0.6, 0.3, 2.2666667), (-0.6, -0.3, 2.6), (-0.3, -0.3, 2.6), (0, -0.3, 2.6), (0.29999995, -0.3, 2.6), (0.6, -0.3, 2.6), (-0.6, 0, 2.6), (-0.3, 0, 2.6), (0, 0, 2.6), (0.29999995, 0, 2.6), (0.6, 0, 2.6), (-0.6, 0.3, 2.6), (-0.3, 0.3, 2.6), (0, 0.3, 2.6), (0.29999995, 0.3, 2.6), (0.6, 0.3, 2.6)]
        int4[] tetVertexIndices = [(1, 16, 6, 0), (15, 0, 20, 16), (5, 20, 0, 6), (21, 6, 16, 20), (6, 16, 20, 0), (1, 2, 6, 16), (17, 16, 22, 2), (7, 6, 2, 22), (21, 22, 16, 6), (6, 2, 22, 16), (3, 18, 8, 2), (17, 2, 22, 18), (7, 22, 2, 8), (23, 8, 18, 22), (8, 18, 22, 2), (3, 4, 8, 18), (19, 18, 24, 4), (9, 8, 4, 24), (23, 24, 18, 8), (8, 4, 24, 18), (5, 6, 10, 20), (21, 20, 26, 6), (11, 10, 6, 26), (25, 26, 20, 10), (10, 6, 26, 20), (7, 22, 12, 6), (21, 6, 26, 22), (11, 26, 6, 12), (27, 12, 22, 26), (12, 22, 26, 6), (7, 8, 12, 22), (23, 22, 28, 8), (13, 12, 8, 28), (27, 28, 22, 12), (12, 8, 28, 22), (9, 24, 14, 8), (23, 8, 28, 24), (13, 28, 8, 14), (29, 14, 24, 28), (14, 24, 28, 8), (15, 16, 20, 30), (31, 30, 36, 16), (21, 20, 16, 36), (35, 36, 30, 20), (20, 16, 36, 30), (17, 32, 22, 16), (31, 16, 36, 32), (21, 36, 16, 22), (37, 22, 32, 36), (22, 32, 36, 16), (17, 18, 22, 32), (33, 32, 38, 18), (23, 22, 18, 38), (37, 38, 32, 22), (22, 18, 38, 32), (19, 34, 24, 18), (33, 18, 38, 34), (23, 38, 18, 24), (39, 24, 34, 38), (24, 34, 38, 18), (21, 36, 26, 20), (35, 20, 40, 36), (25, 40, 20, 26), (41, 26, 36, 40), (26, 36, 40, 20), (21, 22, 26, 36), (37, 36, 42, 22), (27, 26, 22, 42), (41, 42, 36, 26), (26, 22, 42, 36), (23, 38, 28, 22), (37, 22, 42, 38), (27, 42, 22, 28), (43, 28, 38, 42), (28, 38, 42, 22), (23, 24, 28, 38), (39, 38, 44, 24), (29, 28, 24, 44), (43, 44, 38, 28), (28, 24, 44, 38), (31, 46, 36, 30), (45, 30, 50, 46), (35, 50, 30, 36), (51, 36, 46, 50), (36, 46, 50, 30), (31, 32, 36, 46), (47, 46, 52, 32), (37, 36, 32, 52), (51, 52, 46, 36), (36, 32, 52, 46), (33, 48, 38, 32), (47, 32, 52, 48), (37, 52, 32, 38), (53, 38, 48, 52), (38, 48, 52, 32), (33, 34, 38, 48), (49, 48, 54, 34), (39, 38, 34, 54), (53, 54, 48, 38), (38, 34, 54, 48), (35, 36, 40, 50), (51, 50, 56, 36), (41, 40, 36, 56), (55, 56, 50, 40), (40, 36, 56, 50), (37, 52, 42, 36), (51, 36, 56, 52), (41, 56, 36, 42), (57, 42, 52, 56), (42, 52, 56, 36), (37, 38, 42, 52), (53, 52, 58, 38), (43, 42, 38, 58), (57, 58, 52, 42), (42, 38, 58, 52), (39, 54, 44, 38), (53, 38, 58, 54), (43, 58, 38, 44), (59, 44, 54, 58), (44, 54, 58, 38), (45, 46, 50, 60), (61, 60, 66, 46), (51, 50, 46, 66), (65, 66, 60, 50), (50, 46, 66, 60), (47, 62, 52, 46), (61, 46, 66, 62), (51, 66, 46, 52), (67, 52, 62, 66), (52, 62, 66, 46), (47, 48, 52, 62), (63, 62, 68, 48), (53, 52, 48, 68), (67, 68, 62, 52), (52, 48, 68, 62), (49, 64, 54, 48), (63, 48, 68, 64), (53, 68, 48, 54), (69, 54, 64, 68), (54, 64, 68, 48), (51, 66, 56, 50), (65, 50, 70, 66), (55, 70, 50, 56), (71, 56, 66, 70), (56, 66, 70, 50), (51, 52, 56, 66), (67, 66, 72, 52), (57, 56, 52, 72), (71, 72, 66, 56), (56, 52, 72, 66), (53, 68, 58, 52), (67, 52, 72, 68), (57, 72, 52, 58), (73, 58, 68, 72), (58, 68, 72, 52), (53, 54, 58, 68), (69, 68, 74, 54), (59, 58, 54, 74), (73, 74, 68, 58), (58, 54, 74, 68), (61, 76, 66, 60), (75, 60, 80, 76), (65, 80, 60, 66), (81, 66, 76, 80), (66, 76, 80, 60), (61, 62, 66, 76), (77, 76, 82, 62), (67, 66, 62, 82), (81, 82, 76, 66), (66, 62, 82, 76), (63, 78, 68, 62), (77, 62, 82, 78), (67, 82, 62, 68), (83, 68, 78, 82), (68, 78, 82, 62), (63, 64, 68, 78), (79, 78, 84, 64), (69, 68, 64, 84), (83, 84, 78, 68), (68, 64, 84, 78), (65, 66, 70, 80), (81, 80, 86, 66), (71, 70, 66, 86), (85, 86, 80, 70), (70, 66, 86, 80), (67, 82, 72, 66), (81, 66, 86, 82), (71, 86, 66, 72), (87, 72, 82, 86), (72, 82, 86, 66), (67, 68, 72, 82), (83, 82, 88, 68), (73, 72, 68, 88), (87, 88, 82, 72), (72, 68, 88, 82), (69, 84, 74, 68), (83, 68, 88, 84), (73, 88, 68, 74), (89, 74, 84, 88), (74, 84, 88, 68), (75, 76, 80, 90), (91, 90, 96, 76), (81, 80, 76, 96), (95, 96, 90, 80), (80, 76, 96, 90), (77, 92, 82, 76), (91, 76, 96, 92), (81, 96, 76, 82), (97, 82, 92, 96), (82, 92, 96, 76), (77, 78, 82, 92), (93, 92, 98, 78), (83, 82, 78, 98), (97, 98, 92, 82), (82, 78, 98, 92), (79, 94, 84, 78), (93, 78, 98, 94), (83, 98, 78, 84), (99, 84, 94, 98), (84, 94, 98, 78), (81, 96, 86, 80), (95, 80, 100, 96), (85, 100, 80, 86), (101, 86, 96, 100), (86, 96, 100, 80), (81, 82, 86, 96), (97, 96, 102, 82), (87, 86, 82, 102), (101, 102, 96, 86), (86, 82, 102, 96), (83, 98, 88, 82), (97, 82, 102, 98), (87, 102, 82, 88), (103, 88, 98, 102), (88, 98, 102, 82), (83, 84, 88, 98), (99, 98, 104, 84), (89, 88, 84, 104), (103, 104, 98, 88), (88, 84, 104, 98)]
    }

    def Material "Material" (
        prepend apiSchemas = ["PhysicsVolumeDeformableMaterialAPI"]
    )
    {
        custom float physics:density = 300
        custom float physics:poissonsRatio = 0.35
        custom float physics:youngsModulus = 26000
    }

    def ParticleField3DGaussianSplat "Gaussian"
    {
        custom float4[] newton:deformableSkin:influenceWeights = [(0.73453295, 0.056774154, 0, 0.20869291), (0.5800146, 0.010322574, 0.1453044, 0.26435846), (0.6493965, 0.040128496, 0.27434602, 0.036128994), (0.33334705, 0.08258092, 0.2564191, 0.32765293), (0.2115782, 0.12903248, 0.06326735, 0.59612197), (0.05110235, 0.55976695, 0.21364668, 0.17548405), (0.17831829, 0.18556674, 0.41417938, 0.2219356), (0.25627553, 0.39303133, 0.3385815, 0.012111641), (0.11693658, 0.63691473, 0.048246548, 0.19790214), (0.16529848, 0.19599217, 0.027115453, 0.6115939), (0.28060985, 0.12713237, 0.24379723, 0.34846056), (0.122425064, 0.1490082, 0.396798, 0.33176872), (0.028973836, 0.49935466, 0.28163382, 0.19003768), (0.36356446, 0.059468556, 0.124063894, 0.4529031), (0.32319084, 0.27035764, 0.16159905, 0.24485248), (0.11134864, 0.35999998, 0.39880896, 0.12984245), (0.07621644, 0.31354842, 0.39872286, 0.21151228), (0.65753484, 0.26709685, 0.026035912, 0.049332377), (0.08426788, 0.24324138, 0.45184547, 0.22064528), (0.42512003, 0.050044734, 0.3506419, 0.17419337), (0.069888026, 0.1277418, 0.50568044, 0.29668972), (0.72924155, 0.10061639, 0.08885181, 0.08129024), (0.50165623, 0.07903506, 0.38447005, 0.034838673), (0.4025758, 0.011612891, 0.33735666, 0.24845465), (0.04238289, 0.015681563, 0.55146885, 0.3904667), (0.59226316, 0.104516014, 0.20937918, 0.09384165), (0.5106741, 0.047871955, 0.29048598, 0.15096794), (0.19574861, 0.3567267, 0.4458538, 0.0016708841), (0.019097093, 0.39357483, 0.343457, 0.24387106), (0.35288584, 0.29032263, 0.32528007, 0.031511478), (0.35684103, 0.12798488, 0.1783999, 0.3367742), (0.21270443, 0.4181909, 0.19858333, 0.17052132), (0.062026486, 0.19737409, 0.31092212, 0.4296773), (0.016044335, 0.08061071, 0.42721608, 0.47612888), (0.26474434, 0.15524921, 0.057426013, 0.52258044), (0.14678358, 0.06934881, 0.36161917, 0.42224842), (0.06780156, 0.61548394, 0.31111348, 0.0056010336), (0.20121393, 0.46072155, 0.30571973, 0.032344777), (0.10175601, 0.7083871, 0.06267991, 0.12717703), (0.055514537, 0.24516138, 0.59302694, 0.10629715), (0.62904173, 0.17219093, 0.026518889, 0.17224845), (0.43747556, 0.4102662, 0.005089411, 0.14716884), (0.021119364, 0.10580669, 0.8281833, 0.04489063), (0.1829564, 0.059354775, 0.7075333, 0.050155517), (0.031179316, 0.012903212, 0.59084004, 0.3650774), (0.004611743, 0.033548363, 0.5730425, 0.38879737), (0.09263882, 0.079999946, 0.7403816, 0.086979665), (0.004007586, 0.12244394, 0.82139504, 0.05215341), (0.0791547, 0.0937484, 0.41934112, 0.40775576), (0.03493232, 0.21935469, 0.54916734, 0.19654568), (0.16016096, 0.57922125, 0.15497248, 0.1056453), (0.11575252, 0.13156661, 0.0649387, 0.6877422), (0.21496217, 0.14374726, 0.40102524, 0.24026534), (0.08438178, 0.40516135, 0.4812094, 0.02924747), (0.29618883, 0.1697418, 0.37864527, 0.1554241), (0.19003768, 0.5019355, 0.0219005, 0.28612635), (0.15474597, 0.38977012, 0.09879686, 0.35668704), (0.57378775, 0.017179944, 0.066471, 0.3425613), (0.10447253, 0.20092997, 0.16165078, 0.5329467), (0.06942808, 0.31612882, 0.061755296, 0.5526878), (0.6561775, 0.07414523, 0.23778588, 0.031891357), (0.039722394, 0.064398214, 0.11910504, 0.77677435), (0.033113815, 0.12347772, 0.046957035, 0.79645145), (0.2167041, 0.13130453, 0.019034883, 0.63295645), (0.032655384, 0.6514573, 0.22371298, 0.092174314), (0.23770216, 0.05322823, 0.65602624, 0.053043377), (0.013604766, 0.013913158, 0.3412701, 0.631212), (0.56907105, 0.34088597, 0.06482518, 0.025217777), (0.31189018, 0.064348, 0.23491597, 0.38884583), (0.19405621, 0.103478216, 0.4970902, 0.20537537), (0.118148506, 0.024459936, 0.33827886, 0.5191127), (0.38975456, 0.21699587, 0.2115102, 0.18173937), (0.35375616, 0.2208696, 0.23034629, 0.19502796), (0.19483645, 0.41797692, 0.32202327, 0.06516337), (0.032806013, 0.26658067, 0.40148255, 0.29913074), (0.17071228, 0.19041939, 0.30060738, 0.33826098), (0.4487445, 0.3773912, 0.11361393, 0.06025036), (0.22231872, 0.34726706, 0.2362108, 0.1942034), (0.060729656, 0.11778452, 0.3658335, 0.45565236), (0.40322942, 0.09155316, 0.14757858, 0.35763887), (0.41540784, 0.012857613, 0.037821062, 0.5339135), (0.14857948, 0.12049977, 0.3064565, 0.42446423), (0.02525649, 0.6121739, 0.30511224, 0.057457328), (0.2547549, 0.39655, 0.25635123, 0.092343874), (0.17272761, 0.6904351, 0.11436703, 0.022470254), (0.59097177, 0.26276448, 0.0076702135, 0.13859355), (0.5898352, 0.17404608, 0.057258382, 0.17886029), (0.35025173, 0.45757475, 0.04043545, 0.15173808), (0.01173736, 0.030090516, 0.8051288, 0.1530433), (0.06856274, 0.11391273, 0.74154896, 0.07597555), (0.3476894, 0.04867831, 0.026103841, 0.5775285), (0.035724837, 0.32636133, 0.6022619, 0.03565193), (0.17950651, 0.0034786458, 0.677238, 0.13977686), (0.06071135, 0.069192655, 0.8274871, 0.042608853), (0.050938744, 0.03080067, 0.4525355, 0.46572506), (0.11542978, 0.12086998, 0.61682856, 0.14687166), (0.10618787, 0.59595567, 0.24404417, 0.053812314), (0.039117087, 0.1349, 0.025113655, 0.8008692), (0.12253958, 0.115721375, 0.45836502, 0.30337402), (0.19716129, 0.011738474, 0.5137087, 0.27739152), (0.20761986, 0.28497884, 0.39849907, 0.10890222), (0.0399022, 0.6443477, 0.03188874, 0.28386137), (0.09039051, 0.30439234, 0.15755706, 0.4476601), (0.034918025, 0.11577764, 0.4153909, 0.4339134), (0.026115702, 0.2611871, 0.26576927, 0.44692793), (0.4800388, 0.06933377, 0.41849205, 0.032135397), (0.548868, 0.0024367417, 0.325752, 0.12294325), (0.21739985, 0.07644784, 0.11571736, 0.59043497), (0.14668223, 0.393352, 0.029966075, 0.42999968), (0.49110115, 0.03572017, 0.103178956, 0.36999974), (0.094845034, 0.30999976, 0.24911726, 0.34603792), (0.09167689, 0.38809705, 0.27022624, 0.24999982), (0.5989251, 0.084362626, 0.1267124, 0.18999986), (0.15481932, 0.1299999, 0.10692679, 0.60825396), (0.5705231, 0.06671488, 0.29276207, 0.06999995), (0.5114938, 0.009999993, 0.31968048, 0.15882571), (0.2207113, 0.049999963, 0.17541885, 0.5538699), (0.7582285, 0.08595625, 0.045815352, 0.109999925), (0.18616071, 0.43848583, 0.20535357, 0.16999988), (0.29085338, 0.22999984, 0.21249776, 0.266649), (0.4783215, 0.14324933, 0.08842938, 0.28999978), (0.13970532, 0.31538823, 0.11490675, 0.42999968), (0.5314398, 0.36999974, 0.076953694, 0.021606786), (0.06301633, 0.30999976, 0.09549316, 0.53149074), (0.3847817, 0.099883296, 0.2653352, 0.24999982), (0.35792962, 0.18999986, 0.30441907, 0.14765146), (0.12537748, 0.57394767, 0.17067495, 0.1299999), (0.7388655, 0.06999995, 0.06520723, 0.1259273), (0.25046036, 0.009999993, 0.26569366, 0.473846), (0.34492674, 0.049999963, 0.3152675, 0.28980577), (0.689354, 0.109999925, 0.1949429, 0.00570317), (0.27218673, 0.55208176, 0.0057316385, 0.16999988), (0.5496936, 0.22999984, 0.14726473, 0.07304183), (0.32238927, 0.25968257, 0.12792835, 0.28999978), (0.008819906, 0.7184685, 0.12784703, 0.14486457), (0.15703379, 0.10401915, 0.604523, 0.13442408), (0.17627026, 0.039951004, 0.15220013, 0.6315786), (0.009010573, 0.44784242, 0.07636773, 0.46677926), (0.24226758, 0.011381109, 0.32950962, 0.4168417), (0.11437467, 0.3094736, 0.41848722, 0.15766451), (0.5283803, 0.26951456, 0.1937208, 0.008384339), (0.6703642, 0.09473668, 0.028788555, 0.20611057), (0.13750574, 0.51541597, 0.33444655, 0.012631772), (0.2073739, 0.12000023, 0.46652782, 0.20609805), (0.35631058, 0.22736868, 0.3497374, 0.06658335), (0.32307175, 0.03929091, 0.625972, 0.011665403), (0.18150204, 0.1156339, 0.26075846, 0.4421056), (0.1294564, 0.42001766, 0.28543448, 0.16509147), (0.4550782, 0.1381342, 0.20502365, 0.20176393), (0.027808316, 0.7642106, 0.102421746, 0.10555933), (0.21290681, 0.5201294, 0.13854288, 0.12842093), (0.0820118, 0.021052478, 0.76576805, 0.13116767), (0.029443424, 0.8036799, 0.11000412, 0.056872588), (0.1551031, 0.15368448, 0.04122332, 0.64998907), (0.19053814, 0.070514806, 0.024075262, 0.7148718), (0.10974105, 0.051018402, 0.5805602, 0.25868034), (0.10215999, 0.37362987, 0.11308566, 0.4111245), (0.39199486, 0.4168417, 0.041380707, 0.14978272), (0.4254165, 0.051804204, 0.2576694, 0.2651099), (0.13154069, 0.22363071, 0.44272345, 0.20210513), (0.4994026, 0.074735, 0.3311257, 0.09473668), (0.308113, 0.012631772, 0.032736123, 0.6465191), (0.46711782, 0.122711875, 0.29017007, 0.12000023), (0.029819442, 0.28452837, 0.4582835, 0.22736868), (0.08276004, 0.36729762, 0.29796523, 0.2519771), (0.2680571, 0.4421056, 0.107690424, 0.18214686), (0.39284313, 0.15663092, 0.40572813, 0.04479781), (0.06398487, 0.032166537, 0.31099132, 0.5928573), (0.013029288, 0.08323449, 0.6679468, 0.23578939), (0.22679311, 0.12842093, 0.12886298, 0.51592296), (0.05322078, 0.005106927, 0.92061985, 0.021052478), (0.06735413, 0.08631601, 0.13051382, 0.715816), (0.20708813, 0.009423305, 0.691103, 0.09238559), (0.24621166, 0.37842116, 0.04440192, 0.33096525), (0.035515454, 0.124773875, 0.29707927, 0.5426314), (0.21940003, 0.12168162, 0.34200233, 0.31691602), (0.11935851, 0.49590462, 0.2163716, 0.16836527), (0.53206813, 0.14710028, 0.015042143, 0.3057894), (0.5976562, 0.17593074, 0.050911244, 0.17550181), (0.5500954, 0.30201006, 0.00009637147, 0.14779817), (0.43696654, 0.06894727, 0.45705134, 0.037034847), (0.026534336, 0.010000168, 0.8850089, 0.07845665), (0.5051878, 0.117452934, 0.28841168, 0.08894759), (0.05564263, 0.11225219, 0.41382137, 0.41828382), (0.16572843, 0.43468377, 0.318474, 0.08111381), (0.37307343, 0.32578966, 0.19037133, 0.11076559), (0.051238734, 0.18276581, 0.17073251, 0.59526294), (0.022439687, 0.14644729, 0.3698684, 0.4612446), (0.46556613, 0.09706559, 0.16569139, 0.2716769), (0.10715748, 0.35842106, 0.16090828, 0.3735132), (0.057304017, 0.7205264, 0.03375139, 0.18841822), (0.065681234, 0.58569086, 0.11483544, 0.23379248), (0.012361971, 0.40551233, 0.20370452, 0.37842116), (0.4363395, 0.5426314, 0.004620043, 0.016409056), (0.07497558, 0.23800224, 0.2256817, 0.46134046), (0.23256904, 0.3826941, 0.28697225, 0.097764626), (0.2410706, 0.3057894, 0.40409955, 0.049040426), (0.036789715, 0.10279161, 0.08726066, 0.773158), (0.45203474, 0.14789453, 0.30294457, 0.09712614), (0.48529533, 0.008319665, 0.060627606, 0.4457574), (0.12359383, 0.010000168, 0.50029886, 0.36610714), (0.5591902, 0.08894759, 0.18691115, 0.16495104), (0.13078056, 0.037114255, 0.086748734, 0.74535644), (0.11879223, 0.24684224, 0.4896989, 0.14466666), (0.010631186, 0.31515846, 0.4779062, 0.19630416), (0.19087678, 0.022688188, 0.57257473, 0.21386029), (0.3555519, 0.061260447, 0.09950335, 0.4836843), (0.23093683, 0.3316949, 0.085099995, 0.35226828), (0.4647025, 0.12570457, 0.23271647, 0.17687649), (0.031152574, 0.6893738, 0.08407885, 0.19539478), (0.33195856, 0.1955414, 0.002078364, 0.47042167), (0.313756, 0.35973713, 0.03776298, 0.28874388), (0.2778589, 0.18498923, 0.21465202, 0.32249984), (0.15196249, 0.16086763, 0.43966997, 0.24749991), (0.08237085, 0.1725, 0.24640648, 0.49872267), (0.020318713, 0.6004174, 0.28176382, 0.09750007), (0.15801896, 0.022500155, 0.45108476, 0.36839613), (0.70361495, 0.095487855, 0.14839709, 0.05250012), (0.04866352, 0.49311054, 0.3793894, 0.07883652), (0.122477904, 0.08002206, 0.20375752, 0.5937425), (0.02617971, 0.27749988, 0.1868158, 0.5095046), (0.12275087, 0.025015313, 0.499734, 0.3524998), (0.04057476, 0.3869253, 0.13687938, 0.43562055), (0.28172386, 0.44047773, 0.057022285, 0.22077614), (0.29105788, 0.28644204, 0.12978642, 0.29271367), (0.056680568, 0.65249985, 0.14512886, 0.14569074), (0.26783925, 0.07724203, 0.19525822, 0.4596605), (0.15676425, 0.37671754, 0.26901826, 0.19749996), (0.18358813, 0.12250005, 0.25034758, 0.44356424), (0.1872232, 0.21461938, 0.5506573, 0.047500126), (0.020935409, 0.79800546, 0.17449476, 0.0065643936), (0.035499085, 0.067000665, 0.33207777, 0.5654225), (0.08782116, 0.5699981, 0.25250188, 0.08967889), (0.20680909, 0.045690916, 0.065469794, 0.6820302), (0.009900678, 0.55166686, 0.30800903, 0.13042343), (0.08908438, 0.010694355, 0.4952212, 0.40500006), (0.0641575, 0.5741755, 0.17109339, 0.19057362), (0.2587897, 0.18643568, 0.13189754, 0.4228771), (0.3084397, 0.4165601, 0.18401489, 0.090985276), (0.009066976, 0.09936515, 0.13230123, 0.7592666), (0.10892904, 0.18833332, 0.42641315, 0.27632448), (0.0947345, 0.4656824, 0.29458323, 0.14499989), (0.149807, 0.10166647, 0.25924796, 0.48927855), (0.3276208, 0.21212001, 0.40192577, 0.05833341), (0.044699773, 0.80456614, 0.13573408, 0.014999989), (0.009636387, 0.018697035, 0.4661889, 0.50547767), (0.0034544922, 0.07166683, 0.42805487, 0.49682382), (0.018870534, 0.0961297, 0.16428797, 0.72071177), (0.32164422, 0.081297874, 0.43872464, 0.15833329), (0.075681865, 0.6115687, 0.18676463, 0.12598483), (0.14338206, 0.10161804, 0.21021473, 0.54478514), (0.014499669, 0.2883335, 0.5723483, 0.12481852), (0.056116447, 0.28263375, 0.27945912, 0.38179067), (0.055188093, 0.24811332, 0.29044825, 0.40625033), (0.13243818, 0.3413123, 0.28711447, 0.23913506), (0.116412364, 0.42483822, 0.17729367, 0.28145573), (0.01648345, 0.2898457, 0.37140408, 0.32226676), (0.011053251, 0.40625033, 0.2613213, 0.3213751), (0.15791139, 0.29823056, 0.22801898, 0.31583908), (0.07567487, 0.18694837, 0.27180102, 0.46557572), (0.12872206, 0.68428606, 0.12259711, 0.06439479), (0.036335558, 0.17374812, 0.0670594, 0.72285694), (0.020855673, 0.76142853, 0.038308002, 0.17940779), (0.01841071, 0.78158945, 0.15404207, 0.045957796), (0.07058061, 0.08843812, 0.0024095178, 0.8385717), (0.077024974, 0.087486796, 0.035370205, 0.800118), (0.060191672, 0.85552293, 0.0397369, 0.044548497)]
        custom int[] newton:deformableSkin:tetIndices = [172, 185, 133, 151, 128, 133, 146, 129, 154, 149, 134, 154, 127, 132, 149, 125, 150, 140, 132, 147, 127, 155, 145, 91, 114, 83, 98, 109, 86, 116, 101, 94, 113, 88, 98, 109, 91, 114, 83, 90, 109, 89, 117, 107, 92, 71, 46, 54, 69, 48, 74, 65, 54, 71, 49, 70, 69, 54, 74, 47, 54, 66, 234, 207, 212, 227, 207, 191, 186, 171, 194, 168, 173, 189, 166, 191, 186, 174, 193, 169, 178, 189, 171, 194, 163, 174, 189, 169, 192, 187, 174, 190, 126, 131, 149, 128, 154, 145, 134, 146, 129, 150, 149, 133, 154, 129, 134, 146, 225, 225, 207, 225, 202, 207, 225, 207, 186, 181, 168, 186, 168, 212, 230, 230, 212, 230, 212, 217, 230, 173, 196, 191, 173, 191, 144, 124, 145, 144, 122, 140, 124, 127, 101, 83, 106, 84, 88, 104, 84, 106, 100, 80, 64, 138, 159, 139, 159, 150, 139, 155, 132, 116, 111, 98, 119, 93, 99, 119, 95, 115, 112, 58, 49, 48, 65, 49, 69, 42, 49, 69, 47, 28, 21, 9, 29, 3, 7, 29, 9, 25, 26, 74, 53, 57, 74, 54, 70, 53, 57, 74, 11, 36, 34, 13, 34, 14, 18, 34, 14, 34, 134, 129, 130, 130, 125, 130, 125, 86, 94, 89, 91, 86, 89, 94, 89, 91, 94, 85, 90, 87, 49, 54, 49, 54, 171, 167, 169, 174, 169, 174, 172, 165, 170, 167, 165, 134, 126, 134, 133, 129, 134, 128, 169, 166, 169, 169, 174, 171, 174, 174, 171, 166, 171, 169, 166, 174, 169]
        float[] opacities = [0.88, 0.88, 0.88, 0.88, 0.88, 0.88, 0.88, 0.88, 0.88, 0.88, 0.88, 0.88, 0.88, 0.88, 0.88, 0.88, 0.88, 0.88, 0.88, 0.88, 0.88, 0.88, 0.88, 0.88, 0.88, 0.88, 0.88, 0.88, 0.88, 0.88, 0.88, 0.88, 0.88, 0.88, 0.88, 0.88, 0.88, 0.88, 0.88, 0.88, 0.88, 0.88, 0.88, 0.88, 0.88, 0.88, 0.88, 0.88, 0.88, 0.88, 0.88, 0.88, 0.88, 0.88, 0.88, 0.88, 0.88, 0.88, 0.88, 0.88, 0.88, 0.88, 0.88, 0.88, 0.88, 0.88, 0.88, 0.88, 0.88, 0.88, 0.88, 0.88, 0.88, 0.88, 0.88, 0.88, 0.88, 0.88, 0.88, 0.88, 0.88, 0.88, 0.88, 0.88, 0.88, 0.88, 0.88, 0.88, 0.88, 0.88, 0.88, 0.88, 0.88, 0.88, 0.88, 0.88, 0.88, 0.88, 0.88, 0.88, 0.88, 0.88, 0.88, 0.88, 0.88, 0.88, 0.88, 0.88, 0.88, 0.88, 0.88, 0.88, 0.88, 0.88, 0.88, 0.88, 0.88, 0.88, 0.88, 0.88, 0.88, 0.88, 0.88, 0.88, 0.88, 0.88, 0.88, 0.88, 0.88, 0.88, 0.88, 0.88, 0.88, 0.88, 0.88, 0.88, 0.88, 0.88, 0.88, 0.88, 0.88, 0.88, 0.88, 0.88, 0.88, 0.88, 0.88, 0.88, 0.88, 0.88, 0.88, 0.88, 0.88, 0.88, 0.88, 0.88, 0.88, 0.88, 0.88, 0.88, 0.88, 0.88, 0.88, 0.88, 0.88, 0.88, 0.88, 0.88, 0.88, 0.88, 0.88, 0.88, 0.88, 0.88, 0.88, 0.88, 0.88, 0.88, 0.88, 0.88, 0.88, 0.88, 0.88, 0.88, 0.88, 0.88, 0.88, 0.88, 0.88, 0.88, 0.88, 0.88, 0.88, 0.88, 0.88, 0.88, 0.88, 0.88, 0.88, 0.88, 0.88, 0.88, 0.88, 0.88, 0.88, 0.88, 0.88, 0.88, 0.88, 0.88, 0.88, 0.88, 0.88, 0.88, 0.88, 0.88, 0.88, 0.88, 0.88, 0.88, 0.88, 0.88, 0.88, 0.88, 0.88, 0.88, 0.88, 0.88, 0.88, 0.88, 0.88, 0.88, 0.88, 0.88, 0.88, 0.88, 0.88, 0.88, 0.88, 0.88, 0.88, 0.88, 0.88, 0.88, 0.88, 0.88, 0.88, 0.88, 0.88, 0.88, 0.88, 0.88, 0.88, 0.88, 0.88, 0.88, 0.88, 0.88, 0.88, 0.88, 0.88, 0.88, 0.88, 0.88, 0.88, 0.88, 0.88]
        quatf[] orientations = [(1, 0, 0, 0), (0.98293626, 0, 0, 0.18394653), (0.93232733, 0, 0, 0.36161542), (0.8499004, 0, 0, 0.5269433), (0.7384686, 0, 0, 0.6742879), (0.6018346, 0, 0, 0.79862076), (0.44466153, 0, 0, 0.89569867), (0.27231327, 0, 0, 0.9622086), (0.09067162, 0, 0, 0.99588084), (-0.0940644, 0, 0, 0.9955661), (-0.27559024, 0, 0, 0.9612752), (-0.44771087, 0, 0, 0.8941784), (-0.60455227, 0, 0, 0.7965655), (-0.7407618, 0, 0, 0.6717678), (-0.851691, 0, 0, 0.52404433), (-0.93355405, 0, 0, 0.35843658), (-0.9835573, 0, 0, 0.18059626), (-0.9999942, 0, 0, -0.0034073398), (-0.9823038, 0, 0, -0.18729466), (-0.93108976, 0, 0, -0.36479008), (-0.8481, 0, 0, -0.5298361), (-0.7361667, 0, 0, -0.6768002), (-0.59910995, 0, 0, -0.8006668), (-0.441607, 0, 0, -0.8972086), (-0.2690331, 0, 0, -0.96313095), (-0.08727779, 0, 0, -0.996184), (0.09745609, 0, 0, -0.99523985), (0.27886403, 0, 0, -0.9603306), (0.45075506, 0, 0, -0.8926477), (0.6072629, 0, 0, -0.79450095), (0.74304646, 0, 0, -0.6692399), (0.85347164, 0, 0, -0.5211393), (0.93477, 0, 0, -0.35525355), (0.984167, 0, 0, -0.1772439), (0.99997675, 0, 0, 0.00681464), (0.9816599, 0, 0, 0.19064061), (0.9298414, 0, 0, 0.3679605), (0.84628975, 0, 0, 0.53272283), (0.7338564, 0, 0, 0.67930466), (0.5963783, 0, 0, 0.8027035), (0.4385473, 0, 0, 0.8987081), (0.2657498, 0, 0, 0.964042), (0.08388295, 0, 0, 0.99647564), (-0.10084664, 0, 0, 0.99490196), (-0.2821346, 0, 0, 0.95937485), (-0.453794, 0, 0, 0.8911066), (-0.6099665, 0, 0, 0.7924272), (-0.74532247, 0, 0, 0.6667042), (-0.8552424, 0, 0, 0.51822823), (-0.935975, 0, 0, 0.35206643), (-0.9847652, 0, 0, 0.17388949), (-0.9999477, 0, 0, -0.010221861), (-0.9810046, 0, 0, -0.19398436), (-0.92858225, 0, 0, -0.37112665), (-0.8444697, 0, 0, -0.53560334), (-0.7315375, 0, 0, -0.6818012), (-0.59363973, 0, 0, -0.8047309), (-0.4354826, 0, 0, -0.90019715), (-0.26246348, 0, 0, -0.9649419), (-0.08048713, 0, 0, -0.99675566), (0.10423603, 0, 0, -0.9945526), (0.28540188, 0, 0, -0.95840794), (0.8426398, 0, 0, 0.5384776), (0.72921014, 0, 0, 0.6842899), (0.59089434, 0, 0, 0.806749), (0.43241277, 0, 0, 0.90167576), (0.25917405, 0, 0, 0.9658306), (0.07709038, 0, 0, 0.9970241), (-0.1076242, 0, 0, 0.99419165), (-0.28866583, 0, 0, 0.9574299), (-0.45985603, 0, 0, 0.8879935), (-0.6153525, 0, 0, 0.78825206), (-0.7498485, 0, 0, 0.6616096), (-0.85875404, 0, 0, 0.512388), (-0.93835247, 0, 0, 0.3456799), (-0.9859273, 0, 0, 0.16717462), (-0.99985486, 0, 0, -0.017035907), (-0.9796599, 0, 0, -0.20066506), (-0.9260316, 0, 0, -0.377446), (-0.84080017, 0, 0, -0.54134566), (-0.7268743, 0, 0, -0.68677056), (-0.58814204, 0, 0, -0.80875766), (-0.42933795, 0, 0, -0.90314394), (-0.25588164, 0, 0, -0.9667081), (-0.07369273, 0, 0, -0.997281), (0.111011125, 0, 0, -0.9938192), (0.29192644, 0, 0, -0.95644075), (0.46287906, 0, 0, -0.88642144), (0.6180348, 0, 0, -0.78615075), (0.7520985, 0, 0, -0.65905076), (0.860495, 0, 0, -0.50945896), (0.9395249, 0, 0, -0.34248063), (0.9864912, 0, 0, -0.16381426), (0.999791, 0, 0, 0.020442653), (0.97897047, 0, 0, 0.20400192), (0.92474014, 0, 0, 0.3805991), (0.8389507, 0, 0, 0.5442074), (0.72453, 0, 0, 0.68924326), (0.5853829, 0, 0, 0.810757), (0.42625815, 0, 0, 0.9046016), (0.25258625, 0, 0, 0.96757436), (0.07029423, 0, 0, 0.9975263), (-0.11439676, 0, 0, 0.99343514), (-0.29518366, 0, 0, 0.9554405), (-0.4658967, 0, 0, 0.8848391), (-0.62070984, 0, 0, 0.78404033), (-0.7543397, 0, 0, 0.65648425), (-0.86222583, 0, 0, 0.506524), (0.62337774, 0, 0, -0.78192085), (0.7565722, 0, 0, -0.65391016), (0.86394674, 0, 0, -0.5035832), (0.94183695, 0, 0, -0.33607015), (0.98758465, 0, 0, -0.15708788), (0.9996285, 0, 0, 0.027255395), (0.97755754, 0, 0, 0.21066852), (0.92212504, 0, 0, 0.38689205), (0.83522266, 0, 0, 0.5499119), (0.7198162, 0, 0, 0.6941647), (0.5798443, 0, 0, 0.8147273), (0.4200837, 0, 0, 0.90748537), (0.24598671, 0, 0, 0.9692732), (-0.9429766, 0, 0, 0.33285904), (-0.9881141, 0, 0, 0.15372193), (-0.99952984, 0, 0, -0.030661311), (-0.97683406, 0, 0, -0.21399817), (-0.9208014, 0, 0, -0.39003178), (-0.83334404, 0, 0, -0.5527546), (-0.7174468, 0, 0, -0.6966133), (-0.5770649, 0, 0, -0.8166983), (-0.41698915, 0, 0, -0.90891147), (-0.24268265, 0, 0, -0.9701057), (-0.06009398, 0, 0, -0.9981927), (0.12454554, 0, 0, -0.9922139), (0.30493462, 0, 0, -0.95237327), (0.97609925, 0, 0, 0.21732533), (0.9194671, 0, 0, 0.39316702), (0.8314558, 0, 0, 0.55559087), (0.71506906, 0, 0, 0.6990538), (0.5742788, 0, 0, 0.81865984), (0.41388977, 0, 0, 0.910327), (0.23937576, 0, 0, 0.970927), (0.05669245, 0, 0, 0.9983917), (-0.12792562, 0, 0, 0.99178374), (-0.30817792, 0, 0, 0.95132875), (-0.47791287, 0, 0, 0.87840724), (-0.6313379, 0, 0, 0.7755079), (-0.76321685, 0, 0, 0.6461424), (-0.8690492, 0, 0, 0.4947257), (-0.94522303, 0, 0, 0.32642525), (-0.9891388, 0, 0, 0.14698473), (-0.9992977, 0, 0, -0.037472036), (-0.97535306, 0, 0, -0.22064997), (-0.9181221, 0, 0, -0.39629766), (-0.71268296, 0, 0, -0.7014863), (-0.57148594, 0, 0, -0.82061183), (-0.41078556, 0, 0, -0.91173196), (-0.23606609, 0, 0, -0.971737), (-0.053290263, 0, 0, -0.9985791), (0.13130423, 0, 0, -0.9913421), (0.31141764, 0, 0, -0.95027316), (0.48090312, 0, 0, -0.8767737), (0.63397664, 0, 0, -0.7733522), (0.76541406, 0, 0, -0.6435381), (0.8707298, 0, 0, -0.49176168), (0.9463298, 0, 0, -0.32320267), (0.98963386, 0, 0, -0.14361353), (0.9991642, 0, 0, 0.040876765), (0.97459555, 0, 0, 0.22397204), (0.9167664, 0, 0, 0.39942372), (0.82765037, 0, 0, 0.5612441), (0.71028864, 0, 0, 0.7039105), (0.56868654, 0, 0, 0.82255435), (0.23275368, 0, 0, 0.9725357), (0.049887452, 0, 0, 0.99875486), (-0.1346813, 0, 0, 0.99088895), (-0.31465372, 0, 0, 0.94920653), (-0.4838878, 0, 0, 0.87513006), (-0.636608, 0, 0, 0.77118754), (-0.7676024, 0, 0, 0.64092636), (-0.87240034, 0, 0, 0.48879197), (-0.94742554, 0, 0, 0.31997633), (-0.99011743, 0, 0, 0.14024068), (-0.9990191, 0, 0, -0.04428102), (-0.97382677, 0, 0, -0.22729152), (-0.91540015, 0, 0, -0.40254512), (-0.8257332, 0, 0, -0.56406087), (-0.70788604, 0, 0, -0.70632666), (-0.56588054, 0, 0, -0.82448727), (-0.4045629, 0, 0, -0.9145102), (-0.22943857, 0, 0, -0.97332317), (-0.046484068, 0, 0, -0.998919), (0.31788617, 0, 0, -0.9481289), (0.48686686, 0, 0, -0.8734762), (0.639232, 0, 0, -0.76901394), (0.76978177, 0, 0, -0.63830715), (0.8740608, 0, 0, -0.48581657), (0.9485103, 0, 0, -0.31674626), (0.99058956, 0, 0, -0.1368662), (0.99886245, 0, 0, 0.04768476), (0.97304666, 0, 0, 0.23060836), (0.9140232, 0, 0, 0.40566188), (0.82380646, 0, 0, 0.56687117), (0.7054753, 0, 0, 0.7087346), (0.5630679, 0, 0, 0.8264106), (0.4014445, 0, 0, 0.91588336), (0.2261208, 0, 0, 0.9740993), (0.04308014, 0, 0, 0.9990716), (-0.14143074, 0, 0, 0.98994815), (-0.32111493, 0, 0, 0.94704026), (-0.48984027, 0, 0, 0.8718122), (0.82380646, 0, 0, 0.56687117), (0.7054753, 0, 0, 0.7087346), (0.5630679, 0, 0, 0.8264106), (0.4014445, 0, 0, 0.91588336), (0.2261208, 0, 0, 0.9740993), (0.04308014, 0, 0, 0.9990716), (-0.14143074, 0, 0, 0.98994815), (-0.32111493, 0, 0, 0.94704026), (-0.48984027, 0, 0, 0.8718122), (-0.64184856, 0, 0, 0.7668314), (-0.7719522, 0, 0, 0.63568056), (-0.8757111, 0, 0, 0.48283553), (-0.94958407, 0, 0, 0.31351253), (-0.9910501, 0, 0, 0.13349013), (-0.9986942, 0, 0, -0.051087946), (-0.97225523, 0, 0, -0.23392253), (-0.9126357, 0, 0, -0.4087739), (-0.82187015, 0, 0, -0.56967485), (-0.7030563, 0, 0, -0.71113425), (-0.5602488, 0, 0, -0.8283244), (-0.39832145, 0, 0, -0.91724586), (-0.22280039, 0, 0, -0.97486407), (-0.039675713, 0, 0, -0.9992126), (0.144803, 0, 0, -0.9894605), (-0.7719522, 0, 0, 0.63568056), (-0.8757111, 0, 0, 0.48283553), (-0.94958407, 0, 0, 0.31351253), (-0.9910501, 0, 0, 0.13349013), (-0.9986942, 0, 0, -0.051087946), (-0.97225523, 0, 0, -0.23392253), (-0.9126357, 0, 0, -0.4087739), (-0.82187015, 0, 0, -0.56967485), (-0.7030563, 0, 0, -0.71113425), (-0.5602488, 0, 0, -0.8283244), (-0.39832145, 0, 0, -0.91724586), (-0.22280039, 0, 0, -0.97486407), (-0.039675713, 0, 0, -0.9992126), (0.144803, 0, 0, -0.9894605), (0.32433996, 0, 0, -0.9459406), (0.49280798, 0, 0, -0.8701381), (0.6444577, 0, 0, -0.76464), (0.7741137, 0, 0, -0.63304657), (0.99149925, 0, 0, -0.13011251), (0.9985143, 0, 0, 0.05449054), (0.97145253, 0, 0, 0.23723397), (0.91123754, 0, 0, 0.4118812), (-0.14817359, 0, 0, 0.98896134), (-0.3275612, 0, 0, 0.94482994), (-0.49576998, 0, 0, 0.86845386), (-0.6470594, 0, 0, 0.7624396), (-0.90982884, 0, 0, -0.4149837), (-0.81796896, 0, 0, -0.57526237), (-0.6981938, 0, 0, -0.7159088), (-0.55459106, 0, 0, -0.83212304), (-0.3920615, 0, 0, -0.919939), (-0.21615188, 0, 0, -0.9763597), (-0.032865517, 0, 0, -0.9994598)]
        point3f[] positions = [(0.06260786, 0, 1.9522581), (-0.07930754, 0.04359132, 1.9367743), (0.012038547, -0.082303815, 1.9212904), (0.09829587, 0.07692573, 1.9058064), (-0.1788366, -0.018980205, 1.8903226), (0.16793005, -0.06409401, 1.8748387), (-0.055670023, 0.12425382, 1.8593549), (-0.10520795, -0.12154289, 1.843871), (0.22615536, 0.04955494, 1.8283871), (-0.23306772, 0.05772418, 1.8129032), (0.11127886, -0.14267789, 1.7974193), (0.081429966, 0.15576693, 1.7819355), (-0.2429887, -0.08449015, 1.7664516), (0.2821594, -0.03721917, 1.7509677), (-0.170413, 0.14543697, 1.7354839), (-0.038952734, -0.18035732, 1.72), (0.23654628, 0.119616866, 1.7045162), (-0.31479973, 0.007810774, 1.6890323), (0.22702755, -0.13555364, 1.6735485), (-0.015013421, 0.19480744, 1.6580645), (-0.2109931, -0.15170415, 1.6425806), (0.33018488, 0.026655544, 1.6270968), (-0.2762895, 0.11534102, 1.6116129), (0.07453638, -0.19879301, 1.5961291), (0.1701451, 0.17815553, 1.5806452), (-0.3281525, -0.06281376, 1.5651613), (0.31436154, -0.0871458, 1.5496774), (-0.1342574, 0.19248073, 1.5341935), (-0.11807246, -0.19696291, 1.5187097), (0.3094534, 0.097584024, 1.5032258), (-0.33839548, 0.053519975, 1.487742), (0.18926857, -0.17661367, 1.4722581), (0.05921222, 0.20672338, 1.4567742), (-0.2758168, -0.12816483, 1.4412904), (0.34657472, -0.017227804, 1.4258065), (-0.23516029, 0.15252084, 1.4103227), (0.0016803098, -0.20666596, 1.3948387), (0.22993235, 0.1520801, 1.3793548), (-0.33815312, -0.018803973, 1.363871), (0.2681108, -0.12209193, 1.3483871), (-0.059630204, 0.1966682, 1.3329033), (-0.17539333, -0.16723052, 1.3174194), (0.31346714, 0.05154501, 1.3019356), (-0.28495336, 0.08774001, 1.2864516), (0.10952321, -0.17725202, 1.2709677), (0.1166392, 0.17191276, 1.2554839), (-0.2739061, -0.07788553, 1.24), (0.28315166, -0.052379206, 1.2245162), (-0.14607315, 0.14954875, 1.2090323), (-0.058963705, -0.1647502, 1.1935484), (0.22181463, 0.09454004, 1.1780646), (-0.26053002, 0.019481612, 1.1625807), (0.16343172, -0.11520378, 1.1470969), (0.00877424, 0.14436282, 1.1316129), (-0.16022082, -0.097549774, 1.116129), (0.21416207, 0.00657015, 1.1006452), (-0.15342991, 0.07606285, 1.0851613), (0.02509528, -0.10792238, 1.0696775), (0.091620736, 0.079836994, 1.0541936), (-0.13419366, -0.01852659, 1.0387096), (0.093579315, -0.031810977, 1.0232258), (-0.019319465, 0.035731513, 1.0077419), (0.046977453, 0.024021257, 2.3234782), (-0.11011306, -0.0057104654, 2.3104348), (0.10456279, -0.0671139, 2.2973914), (-0.01596847, 0.103192136, 2.2843478), (-0.110636406, -0.10238103, 2.2713044), (0.19773418, 0.019447554, 2.2582607), (-0.18334626, 0.070474796, 2.2452173), (0.061612602, -0.15087295, 2.232174), (0.10882162, 0.13692822, 2.2191305), (-0.23490125, -0.06345306, 2.2060869), (0.24149157, -0.06910389, 2.1930435), (-0.116156, 0.15505792, 2.18), (-0.079974204, -0.17955524, 2.1669564), (0.24287415, 0.090182215, 2.153913), (-0.2819249, 0.034084182, 2.1408696), (0.17087571, -0.16244115, 2.127826), (0.03533535, 0.19024996, 2.1147826), (-0.22826049, -0.13475761, 2.1017392), (0.30385724, -0.011346319, 2.0886955), (-0.21927623, 0.1365108, 2.0756521), (0.017237196, -0.20846634, 2.0626087), (0.19587034, 0.15333185, 2.049565), (-0.3067411, -0.03431011, 2.0365217), (0.25612083, -0.12040741, 2.0234783), (-0.070835605, 0.1941281, 2.0104349), (-0.15059695, -0.18279386, 1.9973912), (0.2909728, 0.058461357, 1.9843478), (-0.27720734, 0.07753531, 1.9713043), (0.11891029, -0.18786204, 1.9582608), (0.097908385, 0.18067858, 1.9452174), (-0.25806695, -0.09682861, 1.9321738), (0.27924216, -0.05175386, 1.9191304), (-0.15499915, 0.15104228, 1.9060869), (-0.0440615, -0.18504858, 1.8930434), (0.21064302, 0.105069615, 1.88), (-0.25953, 0.007534097, 1.8669565), (0.17222589, -0.12572862, 1.8539131), (-0.0035215423, 0.15411262, 1.8408695), (-0.1522204, -0.11816432, 1.827826), (0.21484156, 0.009566622, 1.8147826), (-0.16141519, 0.07438427, 1.8017391), (0.034733288, -0.12461728, 1.7886956), (0.08619083, 0.0875655, 1.7756522), (-0.13518824, -0.030440751, 1.7626086), (0.098456606, -0.037614, 1.7495651), (-0.022934351, 0.03471521, 1.7365217), (-0.18199441, 0.008989823, 2.4099998), (-0.28928396, 0.030953689, 2.3899999), (-0.19618863, -0.07473518, 2.37), (-0.18357089, 0.081067875, 2.35), (-0.3253088, -0.038013723, 2.33), (-0.11752381, -0.03207804, 2.31), (-0.27998555, 0.08782863, 2.29), (-0.2523523, -0.09590415, 2.27), (-0.13383904, 0.052625656, 2.25), (-0.3257869, 0.013744607, 2.23), (-0.16845426, -0.061606076, 2.21), (-0.2200053, 0.06374933, 2.19), (-0.2570252, -0.026528815, 2.17), (0.2053835, -0.034472026, 2.4099998), (0.29351792, 0.023086108, 2.3899999), (0.14055276, 0.02864795, 2.37), (0.27003497, -0.079600565, 2.35), (0.25570452, 0.09132572, 2.33), (0.12781568, -0.051202487, 2.31), (0.33777815, -0.01956217, 2.29), (0.15784618, 0.07970811, 2.27), (0.21305823, -0.094580255, 2.25), (0.3017109, 0.058482874, 2.23), (0.13437545, 0.0017194916, 2.21), (0.2780874, -0.04417942, 2.19), (0.22209519, 0.038378507, 2.17), (-0.3818135, 0.041000083, 1.8821052), (-0.38743737, -0.07153297, 1.8463157), (-0.2880147, 0.04566004, 1.8105263), (-0.46294412, 0.025613492, 1.7747368), (-0.30341434, -0.09885289, 1.7389473), (-0.34729937, 0.12554617, 1.7031579), (-0.4610294, -0.08336967, 1.6673684), (-0.23816684, -0.008636567, 1.6315789), (-0.4546248, 0.10033397, 1.5957894), (-0.36182943, -0.13995835, 1.56), (-0.280025, 0.10492122, 1.5242105), (-0.49129122, -0.0152868945, 1.488421), (-0.26530984, -0.07822754, 1.4526315), (-0.38836437, 0.12446727, 1.416842), (-0.4220363, -0.10196944, 1.3810526), (-0.2683322, 0.030726526, 1.3452631), (-0.4439612, 0.041562863, 1.3094736), (-0.3393503, -0.070269585, 1.2736841), (-0.35006303, 0.041834265, 1.2378947), (0.40500325, -0.012366997, 1.8821052), (0.32837698, 0.06438402, 1.8463157), (0.3482278, -0.09290963, 1.8105263), (0.44601464, 0.0645737, 1.7747368), (0.25506514, 0.012414212, 1.7389473), (0.4431662, -0.09507424, 1.7031579), (0.36708918, 0.13281704, 1.6673684), (0.27757946, -0.09933772, 1.6315789), (0.49395573, 0.0098208375, 1.5957894), (0.2631864, 0.08705103, 1.56), (0.38535848, -0.13748506, 1.5242105), (0.4350173, 0.11421759, 1.488421), (0.2453559, -0.03230713, 1.4526315), (0.4687077, -0.060428623, 1.416842), (0.32884538, 0.11249286, 1.3810526), (0.3249703, -0.099615954, 1.3452631), (0.4452231, 0.038658895, 1.3094736), (0.29846787, 0.023814056, 1.2736841), (0.38525516, -0.039154146, 1.2378947), (-0.23504658, -0.03054267, 1.1668421), (-0.09928958, -0.013320576, 1.1405263), (-0.26256785, 0.089123785, 1.1142105), (-0.19767551, -0.1315793, 1.0878947), (-0.08631714, 0.100719035, 1.061579), (-0.3441301, -0.004512643, 1.0352632), (-0.06792392, -0.10542977, 1.0089474), (-0.20936808, 0.16505754, 0.98263156), (-0.28888956, -0.1371154, 0.9563158), (-0.023536995, 0.034497347, 0.93), (-0.3352359, 0.0865235, 0.9036842), (-0.14217794, -0.15916081, 0.87736845), (-0.11987635, 0.14526074, 0.85105264), (-0.3332297, -0.0571114, 0.82473683), (-0.054829746, -0.051219758, 0.798421), (-0.24933392, 0.11769243, 0.7721053), (-0.22117291, -0.11062275, 0.74578947), (-0.11205396, 0.048272487, 0.7194737), (-0.24347454, 0.010125417, 0.6931579), (0.1954116, 0.054155003, 1.1668421), (0.12165368, -0.06111136, 1.1405263), (0.30492267, -0.001386013, 1.1142105), (0.093893334, 0.09019719, 1.0878947), (0.20089987, -0.14413762, 1.061579), (0.28528783, 0.12122987, 1.0352632), (0.030837476, -0.0261782, 1.0089474), (0.3291378, -0.090883374, 0.98263156), (0.14808448, 0.16377689, 0.9563158), (0.10983212, -0.14991035, 0.93), (0.34948528, 0.056073345, 0.9036842), (0.03715889, 0.06525879, 0.87736845), (0.25659996, -0.14690967, 0.85105264), (0.23791936, 0.14656122, 0.82473683), (0.06406948, -0.070964545, 0.798421), (0.3183781, -0.029851008, 0.7721053), (0.12503844, 0.09481105, 0.74578947), (0.17712209, -0.09077432, 0.7194737), (0.23203576, 0.034569427, 0.6931579), (0.05928592, -0.19978893, 1.7575), (-0.09795207, -0.19454432, 1.7325001), (0.05549676, -0.2356044, 1.7075), (0.048260283, -0.16809902, 1.6825), (-0.14961681, -0.22607806, 1.6575), (0.18012519, -0.21547087, 1.6325), (-0.11051884, -0.16467458, 1.6075001), (-0.028646357, -0.2554809, 1.5825), (0.1625322, -0.17158413, 1.5575), (-0.21486613, -0.20212938, 1.5325), (0.15285136, -0.24395527, 1.5075), (-0.007504594, -0.1500798, 1.4825001), (-0.1428586, -0.24676377, 1.4575), (0.21666044, -0.19837616, 1.4325), (-0.17513147, -0.17374672, 1.4075), (0.043707214, -0.25646135, 1.3825), (0.10352437, -0.16107076, 1.3575001), (-0.18698475, -0.21929453, 1.3325), (0.1669307, -0.22489573, 1.3075), (-0.06438582, -0.1651972, 1.2825), (-0.054317746, -0.24137096, 1.2575), (0.11972351, -0.18972695, 1.2325001), (-0.10265423, -0.1979031, 1.2075), (0.033348206, -0.21831635, 1.1825), (0.039127022, -0.2075973, 2.0827777), (-0.0032083066, -0.14856637, 2.0683334), (-0.07641934, -0.22942474, 2.053889), (0.13356759, -0.18279384, 2.0394444), (-0.1198275, -0.15226363, 2.025), (0.032529633, -0.25758955, 2.0105555), (0.082897335, -0.12792395, 1.9961112), (-0.1602953, -0.21162504, 1.9816667), (0.1532164, -0.22222562, 1.9672222), (-0.063636005, -0.12057774, 1.9527779), (-0.058630154, -0.2592798, 1.9383334), (0.14546576, -0.15725242, 1.9238889), (-0.15095286, -0.17158355, 1.9094445), (0.07812529, -0.24505246, 1.895), (0.024389358, -0.1316174, 1.8805556), (-0.09382484, -0.22126606, 1.8661112), (0.09354982, -0.19392097, 1.8516667), (-0.037445556, -0.1717045, 1.8372222), (-0.13137214, -0.19932733, 2.15375), (-0.074434, -0.21286553, 2.13125), (-0.11147197, -0.17413421, 2.1087499), (-0.11936043, -0.2118882, 2.0862498), (0.09189873, -0.18363374, 2.15375), (0.09641252, -0.22160362, 2.13125), (0.13684256, -0.1842209, 2.1087499), (0.07878696, -0.19575724, 2.0862498), (0.019318433, -0.26322088, 2.0385714), (-0.052124437, -0.2798822, 2.0257144), (0.053822327, -0.2885076, 2.0128572), (-0.019310553, -0.24826418, 2), (-0.026531437, -0.29927716, 1.9871428), (0.049353525, -0.26628146, 1.9742857), (-0.031422053, -0.27002144, 1.9614285)]
        float3[] radiance:sphericalHarmonicsCoefficients = [(0.28359255, -0.8862269, -1.453412), (0.28359255, -0.8862269, -1.453412), (0.28359255, -0.8862269, -1.453412), (0.28359255, -0.8862269, -1.453412), (0.28359255, -0.8862269, -1.453412), (0.28359255, -0.8862269, -1.453412), (0.28359255, -0.8862269, -1.453412), (0.28359255, -0.8862269, -1.453412), (0.28359255, -0.8862269, -1.453412), (0.28359255, -0.8862269, -1.453412), (0.28359255, -0.8862269, -1.453412), (0.28359255, -0.8862269, -1.453412), (0.28359255, -0.8862269, -1.453412), (0.28359255, -0.8862269, -1.453412), (0.28359255, -0.8862269, -1.453412), (0.28359255, -0.8862269, -1.453412), (0.28359255, -0.8862269, -1.453412), (0.28359255, -0.8862269, -1.453412), (0.28359255, -0.8862269, -1.453412), (0.28359255, -0.8862269, -1.453412), (0.28359255, -0.8862269, -1.453412), (0.28359255, -0.8862269, -1.453412), (0.28359255, -0.8862269, -1.453412), (0.28359255, -0.8862269, -1.453412), (0.28359255, -0.8862269, -1.453412), (0.28359255, -0.8862269, -1.453412), (0.28359255, -0.8862269, -1.453412), (0.28359255, -0.8862269, -1.453412), (0.28359255, -0.8862269, -1.453412), (0.28359255, -0.8862269, -1.453412), (0.28359255, -0.8862269, -1.453412), (0.28359255, -0.8862269, -1.453412), (0.28359255, -0.8862269, -1.453412), (0.28359255, -0.8862269, -1.453412), (0.28359255, -0.8862269, -1.453412), (0.28359255, -0.8862269, -1.453412), (0.28359255, -0.8862269, -1.453412), (0.28359255, -0.8862269, -1.453412), (0.28359255, -0.8862269, -1.453412), (0.28359255, -0.8862269, -1.453412), (0.28359255, -0.8862269, -1.453412), (0.28359255, -0.8862269, -1.453412), (0.28359255, -0.8862269, -1.453412), (0.28359255, -0.8862269, -1.453412), (0.28359255, -0.8862269, -1.453412), (0.28359255, -0.8862269, -1.453412), (0.28359255, -0.8862269, -1.453412), (0.28359255, -0.8862269, -1.453412), (0.28359255, -0.8862269, -1.453412), (0.28359255, -0.8862269, -1.453412), (0.28359255, -0.8862269, -1.453412), (0.28359255, -0.8862269, -1.453412), (0.28359255, -0.8862269, -1.453412), (0.28359255, -0.8862269, -1.453412), (0.28359255, -0.8862269, -1.453412), (0.28359255, -0.8862269, -1.453412), (0.28359255, -0.8862269, -1.453412), (0.28359255, -0.8862269, -1.453412), (0.28359255, -0.8862269, -1.453412), (0.28359255, -0.8862269, -1.453412), (0.28359255, -0.8862269, -1.453412), (0.28359255, -0.8862269, -1.453412), (0.28359255, -0.8862269, -1.453412), (0.28359255, -0.8862269, -1.453412), (0.28359255, -0.8862269, -1.453412), (0.28359255, -0.8862269, -1.453412), (0.28359255, -0.8862269, -1.453412), (0.28359255, -0.8862269, -1.453412), (0.28359255, -0.8862269, -1.453412), (0.28359255, -0.8862269, -1.453412), (0.28359255, -0.8862269, -1.453412), (0.28359255, -0.8862269, -1.453412), (0.28359255, -0.8862269, -1.453412), (0.28359255, -0.8862269, -1.453412), (0.28359255, -0.8862269, -1.453412), (0.28359255, -0.8862269, -1.453412), (0.28359255, -0.8862269, -1.453412), (0.28359255, -0.8862269, -1.453412), (0.28359255, -0.8862269, -1.453412), (0.28359255, -0.8862269, -1.453412), (0.28359255, -0.8862269, -1.453412), (0.28359255, -0.8862269, -1.453412), (0.28359255, -0.8862269, -1.453412), (0.28359255, -0.8862269, -1.453412), (0.28359255, -0.8862269, -1.453412), (0.28359255, -0.8862269, -1.453412), (0.28359255, -0.8862269, -1.453412), (0.28359255, -0.8862269, -1.453412), (0.28359255, -0.8862269, -1.453412), (0.28359255, -0.8862269, -1.453412), (0.28359255, -0.8862269, -1.453412), (0.28359255, -0.8862269, -1.453412), (0.28359255, -0.8862269, -1.453412), (0.28359255, -0.8862269, -1.453412), (0.28359255, -0.8862269, -1.453412), (0.28359255, -0.8862269, -1.453412), (0.28359255, -0.8862269, -1.453412), (0.28359255, -0.8862269, -1.453412), (0.28359255, -0.8862269, -1.453412), (0.28359255, -0.8862269, -1.453412), (0.28359255, -0.8862269, -1.453412), (0.28359255, -0.8862269, -1.453412), (0.28359255, -0.8862269, -1.453412), (0.28359255, -0.8862269, -1.453412), (0.28359255, -0.8862269, -1.453412), (0.28359255, -0.8862269, -1.453412), (0.28359255, -0.8862269, -1.453412), (0.28359255, -0.8862269, -1.453412), (-0.9216759, -1.5243102, -1.6838311), (-0.9216759, -1.5243102, -1.6838311), (-0.9216759, -1.5243102, -1.6838311), (-0.9216759, -1.5243102, -1.6838311), (-0.9216759, -1.5243102, -1.6838311), (-0.9216759, -1.5243102, -1.6838311), (-0.9216759, -1.5243102, -1.6838311), (-0.9216759, -1.5243102, -1.6838311), (-0.9216759, -1.5243102, -1.6838311), (-0.9216759, -1.5243102, -1.6838311), (-0.9216759, -1.5243102, -1.6838311), (-0.9216759, -1.5243102, -1.6838311), (-0.9216759, -1.5243102, -1.6838311), (-0.9216759, -1.5243102, -1.6838311), (-0.9216759, -1.5243102, -1.6838311), (-0.9216759, -1.5243102, -1.6838311), (-0.9216759, -1.5243102, -1.6838311), (-0.9216759, -1.5243102, -1.6838311), (-0.9216759, -1.5243102, -1.6838311), (-0.9216759, -1.5243102, -1.6838311), (-0.9216759, -1.5243102, -1.6838311), (-0.9216759, -1.5243102, -1.6838311), (-0.9216759, -1.5243102, -1.6838311), (-0.9216759, -1.5243102, -1.6838311), (-0.9216759, -1.5243102, -1.6838311), (-0.9216759, -1.5243102, -1.6838311), (0.28359255, -0.8862269, -1.453412), (0.28359255, -0.8862269, -1.453412), (0.28359255, -0.8862269, -1.453412), (0.28359255, -0.8862269, -1.453412), (0.28359255, -0.8862269, -1.453412), (0.28359255, -0.8862269, -1.453412), (0.28359255, -0.8862269, -1.453412), (0.28359255, -0.8862269, -1.453412), (0.28359255, -0.8862269, -1.453412), (0.28359255, -0.8862269, -1.453412), (0.28359255, -0.8862269, -1.453412), (0.28359255, -0.8862269, -1.453412), (0.28359255, -0.8862269, -1.453412), (0.28359255, -0.8862269, -1.453412), (0.28359255, -0.8862269, -1.453412), (0.28359255, -0.8862269, -1.453412), (0.28359255, -0.8862269, -1.453412), (0.28359255, -0.8862269, -1.453412), (0.28359255, -0.8862269, -1.453412), (0.28359255, -0.8862269, -1.453412), (0.28359255, -0.8862269, -1.453412), (0.28359255, -0.8862269, -1.453412), (0.28359255, -0.8862269, -1.453412), (0.28359255, -0.8862269, -1.453412), (0.28359255, -0.8862269, -1.453412), (0.28359255, -0.8862269, -1.453412), (0.28359255, -0.8862269, -1.453412), (0.28359255, -0.8862269, -1.453412), (0.28359255, -0.8862269, -1.453412), (0.28359255, -0.8862269, -1.453412), (0.28359255, -0.8862269, -1.453412), (0.28359255, -0.8862269, -1.453412), (0.28359255, -0.8862269, -1.453412), (0.28359255, -0.8862269, -1.453412), (0.28359255, -0.8862269, -1.453412), (0.28359255, -0.8862269, -1.453412), (0.28359255, -0.8862269, -1.453412), (0.28359255, -0.8862269, -1.453412), (0.28359255, -0.8862269, -1.453412), (0.28359255, -0.8862269, -1.453412), (0.28359255, -0.8862269, -1.453412), (0.28359255, -0.8862269, -1.453412), (0.28359255, -0.8862269, -1.453412), (0.28359255, -0.8862269, -1.453412), (0.28359255, -0.8862269, -1.453412), (0.28359255, -0.8862269, -1.453412), (0.28359255, -0.8862269, -1.453412), (0.28359255, -0.8862269, -1.453412), (0.28359255, -0.8862269, -1.453412), (0.28359255, -0.8862269, -1.453412), (0.28359255, -0.8862269, -1.453412), (0.28359255, -0.8862269, -1.453412), (0.28359255, -0.8862269, -1.453412), (0.28359255, -0.8862269, -1.453412), (0.28359255, -0.8862269, -1.453412), (0.28359255, -0.8862269, -1.453412), (0.28359255, -0.8862269, -1.453412), (0.28359255, -0.8862269, -1.453412), (0.28359255, -0.8862269, -1.453412), (0.28359255, -0.8862269, -1.453412), (0.28359255, -0.8862269, -1.453412), (0.28359255, -0.8862269, -1.453412), (0.28359255, -0.8862269, -1.453412), (0.28359255, -0.8862269, -1.453412), (0.28359255, -0.8862269, -1.453412), (0.28359255, -0.8862269, -1.453412), (0.28359255, -0.8862269, -1.453412), (0.28359255, -0.8862269, -1.453412), (0.28359255, -0.8862269, -1.453412), (0.28359255, -0.8862269, -1.453412), (0.28359255, -0.8862269, -1.453412), (0.28359255, -0.8862269, -1.453412), (0.28359255, -0.8862269, -1.453412), (0.28359255, -0.8862269, -1.453412), (0.28359255, -0.8862269, -1.453412), (0.28359255, -0.8862269, -1.453412), (1.2761668, 0.28359255, -0.8153287), (1.2761668, 0.28359255, -0.8153287), (1.2761668, 0.28359255, -0.8153287), (1.2761668, 0.28359255, -0.8153287), (1.2761668, 0.28359255, -0.8153287), (1.2761668, 0.28359255, -0.8153287), (1.2761668, 0.28359255, -0.8153287), (1.2761668, 0.28359255, -0.8153287), (1.2761668, 0.28359255, -0.8153287), (1.2761668, 0.28359255, -0.8153287), (1.2761668, 0.28359255, -0.8153287), (1.2761668, 0.28359255, -0.8153287), (1.2761668, 0.28359255, -0.8153287), (1.2761668, 0.28359255, -0.8153287), (1.2761668, 0.28359255, -0.8153287), (1.2761668, 0.28359255, -0.8153287), (1.2761668, 0.28359255, -0.8153287), (1.2761668, 0.28359255, -0.8153287), (1.2761668, 0.28359255, -0.8153287), (1.2761668, 0.28359255, -0.8153287), (1.2761668, 0.28359255, -0.8153287), (1.2761668, 0.28359255, -0.8153287), (1.2761668, 0.28359255, -0.8153287), (1.2761668, 0.28359255, -0.8153287), (1.2761668, 0.28359255, -0.8153287), (1.2761668, 0.28359255, -0.8153287), (1.2761668, 0.28359255, -0.8153287), (1.2761668, 0.28359255, -0.8153287), (1.2761668, 0.28359255, -0.8153287), (1.2761668, 0.28359255, -0.8153287), (1.2761668, 0.28359255, -0.8153287), (1.2761668, 0.28359255, -0.8153287), (1.2761668, 0.28359255, -0.8153287), (1.2761668, 0.28359255, -0.8153287), (1.2761668, 0.28359255, -0.8153287), (1.2761668, 0.28359255, -0.8153287), (1.2761668, 0.28359255, -0.8153287), (1.2761668, 0.28359255, -0.8153287), (1.2761668, 0.28359255, -0.8153287), (1.2761668, 0.28359255, -0.8153287), (1.2761668, 0.28359255, -0.8153287), (1.2761668, 0.28359255, -0.8153287), (-1.6838311, -1.7086453, -1.7192802), (-1.6838311, -1.7086453, -1.7192802), (-1.6838311, -1.7086453, -1.7192802), (-1.6838311, -1.7086453, -1.7192802), (-1.6838311, -1.7086453, -1.7192802), (-1.6838311, -1.7086453, -1.7192802), (-1.6838311, -1.7086453, -1.7192802), (-1.6838311, -1.7086453, -1.7192802), (-1.6838311, -1.7086453, -1.7192802), (-1.6838311, -1.7086453, -1.7192802), (-1.6838311, -1.7086453, -1.7192802), (-1.6838311, -1.7086453, -1.7192802), (-1.6838311, -1.7086453, -1.7192802), (-1.6838311, -1.7086453, -1.7192802), (-1.6838311, -1.7086453, -1.7192802)]
        uniform int radiance:sphericalHarmonicsDegree = 0
        float3[] scales = [(0.075, 0.055, 0.085), (0.075, 0.055, 0.085), (0.075, 0.055, 0.085), (0.075, 0.055, 0.085), (0.075, 0.055, 0.085), (0.075, 0.055, 0.085), (0.075, 0.055, 0.085), (0.075, 0.055, 0.085), (0.075, 0.055, 0.085), (0.075, 0.055, 0.085), (0.075, 0.055, 0.085), (0.075, 0.055, 0.085), (0.075, 0.055, 0.085), (0.075, 0.055, 0.085), (0.075, 0.055, 0.085), (0.075, 0.055, 0.085), (0.075, 0.055, 0.085), (0.075, 0.055, 0.085), (0.075, 0.055, 0.085), (0.075, 0.055, 0.085), (0.075, 0.055, 0.085), (0.075, 0.055, 0.085), (0.075, 0.055, 0.085), (0.075, 0.055, 0.085), (0.075, 0.055, 0.085), (0.075, 0.055, 0.085), (0.075, 0.055, 0.085), (0.075, 0.055, 0.085), (0.075, 0.055, 0.085), (0.075, 0.055, 0.085), (0.075, 0.055, 0.085), (0.075, 0.055, 0.085), (0.075, 0.055, 0.085), (0.075, 0.055, 0.085), (0.075, 0.055, 0.085), (0.075, 0.055, 0.085), (0.075, 0.055, 0.085), (0.075, 0.055, 0.085), (0.075, 0.055, 0.085), (0.075, 0.055, 0.085), (0.075, 0.055, 0.085), (0.075, 0.055, 0.085), (0.075, 0.055, 0.085), (0.075, 0.055, 0.085), (0.075, 0.055, 0.085), (0.075, 0.055, 0.085), (0.075, 0.055, 0.085), (0.075, 0.055, 0.085), (0.075, 0.055, 0.085), (0.075, 0.055, 0.085), (0.075, 0.055, 0.085), (0.075, 0.055, 0.085), (0.075, 0.055, 0.085), (0.075, 0.055, 0.085), (0.075, 0.055, 0.085), (0.075, 0.055, 0.085), (0.075, 0.055, 0.085), (0.075, 0.055, 0.085), (0.075, 0.055, 0.085), (0.075, 0.055, 0.085), (0.075, 0.055, 0.085), (0.075, 0.055, 0.085), (0.065, 0.052, 0.065), (0.065, 0.052, 0.065), (0.065, 0.052, 0.065), (0.065, 0.052, 0.065), (0.065, 0.052, 0.065), (0.065, 0.052, 0.065), (0.065, 0.052, 0.065), (0.065, 0.052, 0.065), (0.065, 0.052, 0.065), (0.065, 0.052, 0.065), (0.065, 0.052, 0.065), (0.065, 0.052, 0.065), (0.065, 0.052, 0.065), (0.065, 0.052, 0.065), (0.065, 0.052, 0.065), (0.065, 0.052, 0.065), (0.065, 0.052, 0.065), (0.065, 0.052, 0.065), (0.065, 0.052, 0.065), (0.065, 0.052, 0.065), (0.065, 0.052, 0.065), (0.065, 0.052, 0.065), (0.065, 0.052, 0.065), (0.065, 0.052, 0.065), (0.065, 0.052, 0.065), (0.065, 0.052, 0.065), (0.065, 0.052, 0.065), (0.065, 0.052, 0.065), (0.065, 0.052, 0.065), (0.065, 0.052, 0.065), (0.065, 0.052, 0.065), (0.065, 0.052, 0.065), (0.065, 0.052, 0.065), (0.065, 0.052, 0.065), (0.065, 0.052, 0.065), (0.065, 0.052, 0.065), (0.065, 0.052, 0.065), (0.065, 0.052, 0.065), (0.065, 0.052, 0.065), (0.065, 0.052, 0.065), (0.065, 0.052, 0.065), (0.065, 0.052, 0.065), (0.065, 0.052, 0.065), (0.065, 0.052, 0.065), (0.065, 0.052, 0.065), (0.065, 0.052, 0.065), (0.055, 0.045, 0.055), (0.055, 0.045, 0.055), (0.055, 0.045, 0.055), (0.055, 0.045, 0.055), (0.055, 0.045, 0.055), (0.055, 0.045, 0.055), (0.055, 0.045, 0.055), (0.055, 0.045, 0.055), (0.055, 0.045, 0.055), (0.055, 0.045, 0.055), (0.055, 0.045, 0.055), (0.055, 0.045, 0.055), (0.055, 0.045, 0.055), (0.055, 0.045, 0.055), (0.055, 0.045, 0.055), (0.055, 0.045, 0.055), (0.055, 0.045, 0.055), (0.055, 0.045, 0.055), (0.055, 0.045, 0.055), (0.055, 0.045, 0.055), (0.055, 0.045, 0.055), (0.055, 0.045, 0.055), (0.055, 0.045, 0.055), (0.055, 0.045, 0.055), (0.055, 0.045, 0.055), (0.055, 0.045, 0.055), (0.06, 0.05, 0.075), (0.06, 0.05, 0.075), (0.06, 0.05, 0.075), (0.06, 0.05, 0.075), (0.06, 0.05, 0.075), (0.06, 0.05, 0.075), (0.06, 0.05, 0.075), (0.06, 0.05, 0.075), (0.06, 0.05, 0.075), (0.06, 0.05, 0.075), (0.06, 0.05, 0.075), (0.06, 0.05, 0.075), (0.06, 0.05, 0.075), (0.06, 0.05, 0.075), (0.06, 0.05, 0.075), (0.06, 0.05, 0.075), (0.06, 0.05, 0.075), (0.06, 0.05, 0.075), (0.06, 0.05, 0.075), (0.06, 0.05, 0.075), (0.06, 0.05, 0.075), (0.06, 0.05, 0.075), (0.06, 0.05, 0.075), (0.06, 0.05, 0.075), (0.06, 0.05, 0.075), (0.06, 0.05, 0.075), (0.06, 0.05, 0.075), (0.06, 0.05, 0.075), (0.06, 0.05, 0.075), (0.06, 0.05, 0.075), (0.06, 0.05, 0.075), (0.06, 0.05, 0.075), (0.06, 0.05, 0.075), (0.06, 0.05, 0.075), (0.06, 0.05, 0.075), (0.06, 0.05, 0.075), (0.06, 0.05, 0.075), (0.06, 0.05, 0.075), (0.07, 0.055, 0.075), (0.07, 0.055, 0.075), (0.07, 0.055, 0.075), (0.07, 0.055, 0.075), (0.07, 0.055, 0.075), (0.07, 0.055, 0.075), (0.07, 0.055, 0.075), (0.07, 0.055, 0.075), (0.07, 0.055, 0.075), (0.07, 0.055, 0.075), (0.07, 0.055, 0.075), (0.07, 0.055, 0.075), (0.07, 0.055, 0.075), (0.07, 0.055, 0.075), (0.07, 0.055, 0.075), (0.07, 0.055, 0.075), (0.07, 0.055, 0.075), (0.07, 0.055, 0.075), (0.07, 0.055, 0.075), (0.07, 0.055, 0.075), (0.07, 0.055, 0.075), (0.07, 0.055, 0.075), (0.07, 0.055, 0.075), (0.07, 0.055, 0.075), (0.07, 0.055, 0.075), (0.07, 0.055, 0.075), (0.07, 0.055, 0.075), (0.07, 0.055, 0.075), (0.07, 0.055, 0.075), (0.07, 0.055, 0.075), (0.07, 0.055, 0.075), (0.07, 0.055, 0.075), (0.07, 0.055, 0.075), (0.07, 0.055, 0.075), (0.07, 0.055, 0.075), (0.07, 0.055, 0.075), (0.07, 0.055, 0.075), (0.07, 0.055, 0.075), (0.065, 0.035, 0.075), (0.065, 0.035, 0.075), (0.065, 0.035, 0.075), (0.065, 0.035, 0.075), (0.065, 0.035, 0.075), (0.065, 0.035, 0.075), (0.065, 0.035, 0.075), (0.065, 0.035, 0.075), (0.065, 0.035, 0.075), (0.065, 0.035, 0.075), (0.065, 0.035, 0.075), (0.065, 0.035, 0.075), (0.065, 0.035, 0.075), (0.065, 0.035, 0.075), (0.065, 0.035, 0.075), (0.065, 0.035, 0.075), (0.065, 0.035, 0.075), (0.065, 0.035, 0.075), (0.065, 0.035, 0.075), (0.065, 0.035, 0.075), (0.065, 0.035, 0.075), (0.065, 0.035, 0.075), (0.065, 0.035, 0.075), (0.065, 0.035, 0.075), (0.055, 0.035, 0.05), (0.055, 0.035, 0.05), (0.055, 0.035, 0.05), (0.055, 0.035, 0.05), (0.055, 0.035, 0.05), (0.055, 0.035, 0.05), (0.055, 0.035, 0.05), (0.055, 0.035, 0.05), (0.055, 0.035, 0.05), (0.055, 0.035, 0.05), (0.055, 0.035, 0.05), (0.055, 0.035, 0.05), (0.055, 0.035, 0.05), (0.055, 0.035, 0.05), (0.055, 0.035, 0.05), (0.055, 0.035, 0.05), (0.055, 0.035, 0.05), (0.055, 0.035, 0.05), (0.035, 0.025, 0.035), (0.035, 0.025, 0.035), (0.035, 0.025, 0.035), (0.035, 0.025, 0.035), (0.035, 0.025, 0.035), (0.035, 0.025, 0.035), (0.035, 0.025, 0.035), (0.035, 0.025, 0.035), (0.04, 0.025, 0.035), (0.04, 0.025, 0.035), (0.04, 0.025, 0.035), (0.04, 0.025, 0.035), (0.04, 0.025, 0.035), (0.04, 0.025, 0.035), (0.04, 0.025, 0.035)]
        uniform token sortingModeHint = "cameraDistance"
    }
}

