{
	"asset":{
		"generator":"glTF-Transform v3.10.1",
		"version":"2.0"
	},
	"accessors":[
		{
			"type":"VEC3",
			"componentType":5126,
			"count":5978,
			"max":[
				0.035010822117328644,
				0.007078117690980434,
				0.008270449005067348
			],
			"min":[
				-0.03650619834661484,
				-0.007078117690980434,
				-0.008270449005067348
			],
			"bufferView":0,
			"byteOffset":0
		},
		{
			"type":"VEC3",
			"componentType":5126,
			"count":5978,
			"bufferView":0,
			"byteOffset":12
		},
		{
			"type":"VEC2",
			"componentType":5126,
			"count":5978,
			"bufferView":0,
			"byteOffset":24
		},
		{
			"type":"VEC3",
			"componentType":5126,
			"count":37038,
			"max":[
				0.051417186856269836,
				0.00708258431404829,
				0.013628589920699596
			],
			"min":[
				-0.14856109023094177,
				-0.01358863990753889,
				-0.013628581538796425
			],
			"bufferView":1,
			"byteOffset":0
		},
		{
			"type":"VEC3",
			"componentType":5126,
			"count":37038,
			"bufferView":1,
			"byteOffset":12
		},
		{
			"type":"VEC2",
			"componentType":5126,
			"count":37038,
			"bufferView":1,
			"byteOffset":24
		},
		{
			"type":"SCALAR",
			"componentType":5123,
			"count":21792,
			"bufferView":2,
			"byteOffset":0
		},
		{
			"type":"SCALAR",
			"componentType":5123,
			"count":142416,
			"bufferView":2,
			"byteOffset":43584
		}
	],
	"bufferViews":[
		{
			"buffer":0,
			"byteOffset":0,
			"byteLength":191296,
			"byteStride":32,
			"target":34962
		},
		{
			"buffer":0,
			"byteOffset":191296,
			"byteLength":1185216,
			"byteStride":32,
			"target":34962
		},
		{
			"buffer":0,
			"byteOffset":1376512,
			"byteLength":328416,
			"target":34963
		}
	],
	"samplers":[
		{
			"magFilter":9729,
			"minFilter":9987,
			"wrapS":10497,
			"wrapT":10497
		}
	],
	"textures":[
		{
			"source":0,
			"sampler":0,
			"extensions":{
				"KHR_texture_basisu":{
					"source":3
				}
			}
		},
		{
			"source":1,
			"sampler":0,
			"extensions":{
				"KHR_texture_basisu":{
					"source":4
				}
			}
		},
		{
			"source":2,
			"sampler":0,
			"extensions":{
				"KHR_texture_basisu":{
					"source":5
				}
			}
		}
	],
	"images":[
		{
			"name":"cambridge_jubilee_stainless_plastic_fork_normal",
			"mimeType":"image/png",
			"uri":"cambridge_jubilee_stainless_plastic_fork_normal.png"
		},
		{
			"name":"cambridge_jubilee_stainless_plastic_fork_occlusion_roughness_metallic",
			"mimeType":"image/png",
			"uri":"cambridge_jubilee_stainless_plastic_fork_occlusion_roughness_metallic.png"
		},
		{
			"name":"cambridge_jubilee_stainless_plastic_fork_color",
			"mimeType":"image/png",
			"uri":"cambridge_jubilee_stainless_plastic_fork_color.png"
		},
		{
			"mimeType":"image/ktx2",
			"uri":"cambridge_jubilee_stainless_plastic_fork_normal.ktx2"
		},
		{
			"mimeType":"image/ktx2",
			"uri":"cambridge_jubilee_stainless_plastic_fork_occlusion_roughness_metallic.ktx2"
		},
		{
			"mimeType":"image/ktx2",
			"uri":"cambridge_jubilee_stainless_plastic_fork_color.ktx2"
		}
	],
	"buffers":[
		{
			"uri":"cambridge_jubilee_stainless_plastic_fork.bin",
			"byteLength":1704928
		}
	],
	"materials":[
		{
			"name":"cambridge_jubilee_stainless_plastic_fork_color",
			"doubleSided":true,
			"pbrMetallicRoughness":{
				"baseColorFactor":[
					0.0,
					0.0,
					0.0,
					1
				],
				"metallicRoughnessTexture":{
					"index":1
				}
			},
			"normalTexture":{
				"index":0
			}
		},
		{
			"name":"cambridge_jubilee_stainless_plastic_fork_material",
			"doubleSided":true,
			"pbrMetallicRoughness":{
				"baseColorTexture":{
					"index":2
				},
				"metallicRoughnessTexture":{
					"index":1
				}
			},
			"normalTexture":{
				"index":0
			}
		}
	],
	"meshes":[
		{
			"name":"cambridge_jubilee_stainless_plastic_fork",
			"primitives":[
				{
					"attributes":{
						"POSITION":0,
						"NORMAL":1,
						"TEXCOORD_0":2
					},
					"mode":4,
					"material":0,
					"indices":6
				},
				{
					"attributes":{
						"POSITION":3,
						"NORMAL":4,
						"TEXCOORD_0":5
					},
					"mode":4,
					"material":1,
					"indices":7
				}
			]
		}
	],
	"nodes":[
		{
			"name":"cambridge_jubilee_stainless_plastic_fork",
			"mesh":0
		}
	],
	"scenes":[
		{
			"name":"Scene",
			"nodes":[
				0
			]
		}
	],
	"scene":0,
	"extensionsUsed":[
		"KHR_texture_basisu"
	]
}
