{
	"asset":{
		"generator":"glTF-Transform v3.10.1",
		"version":"2.0"
	},
	"accessors":[
		{
			"type":"VEC3",
			"componentType":5126,
			"count":5568,
			"max":[
				0.060750845819711685,
				0.005057214759290218,
				0.07376699894666672
			],
			"min":[
				-0.0054391599260270596,
				-0.08668181300163269,
				-0.07376699894666672
			],
			"bufferView":0,
			"byteOffset":0
		},
		{
			"type":"VEC3",
			"componentType":5126,
			"count":5568,
			"bufferView":0,
			"byteOffset":12
		},
		{
			"type":"VEC2",
			"componentType":5126,
			"count":5568,
			"bufferView":0,
			"byteOffset":24
		},
		{
			"type":"SCALAR",
			"componentType":5123,
			"count":14250,
			"bufferView":1,
			"byteOffset":0
		}
	],
	"bufferViews":[
		{
			"buffer":0,
			"byteOffset":0,
			"byteLength":178176,
			"byteStride":32,
			"target":34962
		},
		{
			"buffer":0,
			"byteOffset":178176,
			"byteLength":28500,
			"target":34963
		}
	],
	"samplers":[
		{
			"magFilter":9729,
			"minFilter":9987,
			"wrapS":10497,
			"wrapT":10497
		}
	],
	"textures":[
		{
			"source":0,
			"sampler":0,
			"extensions":{
				"KHR_texture_basisu":{
					"source":2
				}
			}
		},
		{
			"source":1,
			"sampler":0,
			"extensions":{
				"KHR_texture_basisu":{
					"source":3
				}
			}
		}
	],
	"images":[
		{
			"name":"sweet_home_dish_drying_rack_utensil_holder_normal",
			"mimeType":"image/png",
			"uri":"sweet_home_dish_drying_rack_utensil_holder_normal.png"
		},
		{
			"name":"sweet_home_dish_drying_rack_utensil_holder_occlussion_roughness_metallic",
			"mimeType":"image/png",
			"uri":"sweet_home_dish_drying_rack_utensil_holder_occlussion_roughness_metallic.png"
		},
		{
			"mimeType":"image/ktx2",
			"uri":"sweet_home_dish_drying_rack_utensil_holder_normal.ktx2"
		},
		{
			"mimeType":"image/ktx2",
			"uri":"sweet_home_dish_drying_rack_utensil_holder_occlussion_roughness_metallic.ktx2"
		}
	],
	"buffers":[
		{
			"uri":"sweet_home_dish_drying_rack_utensil_holder.bin",
			"byteLength":206676
		}
	],
	"materials":[
		{
			"name":"sweet_home_dish_drying_rack_utensil_holder_color",
			"doubleSided":true,
			"pbrMetallicRoughness":{
				"baseColorFactor":[
					0,
					0,
					0,
					1
				],
				"metallicRoughnessTexture":{
					"index":1
				}
			},
			"normalTexture":{
				"index":0
			},
			"occlusionTexture":{
				"index":1
			}
		}
	],
	"meshes":[
		{
			"name":"sweet_home_dish_drying_rack_utensil_holder",
			"primitives":[
				{
					"attributes":{
						"POSITION":0,
						"NORMAL":1,
						"TEXCOORD_0":2
					},
					"mode":4,
					"material":0,
					"indices":3
				}
			]
		}
	],
	"nodes":[
		{
			"name":"sweet_home_dish_drying_rack_utensil_holder",
			"mesh":0
		}
	],
	"scenes":[
		{
			"name":"Scene",
			"nodes":[
				0
			]
		}
	],
	"scene":0,
	"extensionsUsed":[
		"KHR_texture_basisu"
	]
}
