{
	"asset":{
		"generator":"glTF-Transform v3.10.1",
		"version":"2.0"
	},
	"accessors":[
		{
			"type":"VEC3",
			"componentType":5126,
			"count":21892,
			"max":[
				0.153997004032135,
				0.11413337290287018,
				0.2219957411289215
			],
			"min":[
				-0.153997004032135,
				-2.1581543663273806e-08,
				-0.2219957709312439
			],
			"bufferView":0,
			"byteOffset":0
		},
		{
			"type":"VEC3",
			"componentType":5126,
			"count":21892,
			"bufferView":0,
			"byteOffset":12
		},
		{
			"type":"VEC2",
			"componentType":5126,
			"count":21892,
			"bufferView":0,
			"byteOffset":24
		},
		{
			"type":"SCALAR",
			"componentType":5123,
			"count":100464,
			"bufferView":1,
			"byteOffset":0
		}
	],
	"bufferViews":[
		{
			"buffer":0,
			"byteOffset":0,
			"byteLength":700544,
			"byteStride":32,
			"target":34962
		},
		{
			"buffer":0,
			"byteOffset":700544,
			"byteLength":200928,
			"target":34963
		}
	],
	"samplers":[
		{
			"magFilter":9729,
			"minFilter":9987,
			"wrapS":10497,
			"wrapT":10497
		}
	],
	"textures":[
		{
			"source":0,
			"sampler":0,
			"extensions":{
				"KHR_texture_basisu":{
					"source":2
				}
			}
		},
		{
			"source":1,
			"sampler":0,
			"extensions":{
				"KHR_texture_basisu":{
					"source":3
				}
			}
		}
	],
	"images":[
		{
			"name":"sweet_home_dish_drying_rack_wireframe_normal",
			"mimeType":"image/png",
			"uri":"sweet_home_dish_drying_rack_wireframe_normal.png"
		},
		{
			"name":"sweet_home_dish_drying_rack_wireframe_occlusion_roughness_metallic",
			"mimeType":"image/png",
			"uri":"sweet_home_dish_drying_rack_wireframe_occlusion_roughness_metallic.png"
		},
		{
			"mimeType":"image/ktx2",
			"uri":"sweet_home_dish_drying_rack_wireframe_normal.ktx2"
		},
		{
			"mimeType":"image/ktx2",
			"uri":"sweet_home_dish_drying_rack_wireframe_occlusion_roughness_metallic.ktx2"
		}
	],
	"buffers":[
		{
			"uri":"sweet_home_dish_drying_rack_wireframe.bin",
			"byteLength":901472
		}
	],
	"materials":[
		{
			"name":"sweet_home_dish_drying_rack_wireframe_color",
			"doubleSided":true,
			"pbrMetallicRoughness":{
				"baseColorFactor":[
					0,
					0,
					0,
					1
				],
				"metallicRoughnessTexture":{
					"index":1
				}
			},
			"normalTexture":{
				"index":0
			},
			"occlusionTexture":{
				"index":1
			}
		}
	],
	"meshes":[
		{
			"name":"sweet_home_dish_drying_rack_wireframe",
			"primitives":[
				{
					"attributes":{
						"POSITION":0,
						"NORMAL":1,
						"TEXCOORD_0":2
					},
					"mode":4,
					"material":0,
					"indices":3
				}
			]
		}
	],
	"nodes":[
		{
			"name":"sweet_home_dish_drying_rack_wireframe",
			"mesh":0
		}
	],
	"scenes":[
		{
			"name":"Scene",
			"nodes":[
				0
			]
		}
	],
	"scene":0,
	"extensionsUsed":[
		"KHR_texture_basisu"
	]
}
