{
	"asset":{
		"generator":"glTF-Transform v3.10.1",
		"version":"2.0"
	},
	"accessors":[
		{
			"type":"VEC3",
			"componentType":5126,
			"count":4925,
			"max":[
				0.15361054241657257,
				0.032320063561201096,
				0.21250003576278687
			],
			"min":[
				-0.15361054241657257,
				-5.650638623677651e-09,
				-0.21250003576278687
			],
			"bufferView":0,
			"byteOffset":0
		},
		{
			"type":"VEC3",
			"componentType":5126,
			"count":4925,
			"bufferView":0,
			"byteOffset":12
		},
		{
			"type":"VEC2",
			"componentType":5126,
			"count":4925,
			"bufferView":0,
			"byteOffset":24
		},
		{
			"type":"SCALAR",
			"componentType":5123,
			"count":24810,
			"bufferView":1,
			"byteOffset":0
		}
	],
	"bufferViews":[
		{
			"buffer":0,
			"byteOffset":0,
			"byteLength":157600,
			"byteStride":32,
			"target":34962
		},
		{
			"buffer":0,
			"byteOffset":157600,
			"byteLength":49620,
			"target":34963
		}
	],
	"samplers":[
		{
			"magFilter":9729,
			"minFilter":9987,
			"wrapS":10497,
			"wrapT":10497
		}
	],
	"textures":[
		{
			"source":0,
			"sampler":0,
			"extensions":{
				"KHR_texture_basisu":{
					"source":2
				}
			}
		},
		{
			"source":1,
			"sampler":0,
			"extensions":{
				"KHR_texture_basisu":{
					"source":3
				}
			}
		}
	],
	"images":[
		{
			"name":"sweet_home_dish_drying_rack_base_normal",
			"mimeType":"image/png",
			"uri":"sweet_home_dish_drying_rack_base_normal.png"
		},
		{
			"name":"sweet_home_dish_drying_rack_base_occlussion_roughness_metallic",
			"mimeType":"image/png",
			"uri":"sweet_home_dish_drying_rack_base_occlussion_roughness_metallic.png"
		},
		{
			"mimeType":"image/ktx2",
			"uri":"sweet_home_dish_drying_rack_base_normal.ktx2"
		},
		{
			"mimeType":"image/ktx2",
			"uri":"sweet_home_dish_drying_rack_base_occlussion_roughness_metallic.ktx2"
		}
	],
	"buffers":[
		{
			"uri":"sweet_home_dish_drying_rack_base.bin",
			"byteLength":207220
		}
	],
	"materials":[
		{
			"name":"sweet_home_dish_drying_rack_base_color",
			"doubleSided":true,
			"pbrMetallicRoughness":{
				"baseColorFactor":[
					0,
					0,
					0,
					1
				],
				"metallicRoughnessTexture":{
					"index":1
				}
			},
			"normalTexture":{
				"index":0
			},
			"occlusionTexture":{
				"index":1
			}
		}
	],
	"meshes":[
		{
			"name":"sweet_home_dish_drying_rack_base",
			"primitives":[
				{
					"attributes":{
						"POSITION":0,
						"NORMAL":1,
						"TEXCOORD_0":2
					},
					"mode":4,
					"material":0,
					"indices":3
				}
			]
		}
	],
	"nodes":[
		{
			"name":"sweet_home_dish_drying_rack_base",
			"mesh":0
		}
	],
	"scenes":[
		{
			"name":"Scene",
			"nodes":[
				0
			]
		}
	],
	"scene":0,
	"extensionsUsed":[
		"KHR_texture_basisu"
	]
}
